<svg width="160" height="120" viewBox="0 0 160 120" fill="none" xmlns="http://www.w3.org/2000/svg">
<path d="M44.1894 71.6494C19.7926 58.0622 18.1414 7.91177 53.7286 12.3182C66.1798 13.8606 75.2326 25.147 86.823 28.9582C100.215 33.3454 109.93 26.1614 122.663 26.9262C152.929 28.7438 153.972 66.4462 128.103 76.2382C114.17 81.515 100.721 80.5262 86.727 78.523C74.5606 76.7598 55.6806 78.043 44.1894 71.6494Z" fill="#BB0A08"/>
<path opacity="0.9" d="M44.1894 71.6494C19.7926 58.0622 18.1414 7.91177 53.7286 12.3182C66.1798 13.8606 75.2326 25.147 86.823 28.9582C100.215 33.3454 109.93 26.1614 122.663 26.9262C152.929 28.7438 153.972 66.4462 128.103 76.2382C114.17 81.515 100.721 80.5262 86.727 78.523C74.5606 76.7598 55.6806 78.043 44.1894 71.6494Z" fill="#FAFAFA"/>
<path d="M79.9979 119.219C114.264 119.219 142.043 117.598 142.043 115.597C142.043 113.596 114.264 111.975 79.9979 111.975C45.7315 111.975 17.9531 113.596 17.9531 115.597C17.9531 117.598 45.7315 119.219 79.9979 119.219Z" fill="#F5F5F5"/>
<path d="M57.7428 69.5812C57.5531 69.5688 57.3752 69.4846 57.2453 69.3459C57.1153 69.2071 57.043 69.0241 57.043 68.834C57.043 68.6439 57.1153 68.4609 57.2453 68.3221C57.3752 68.1833 57.5531 68.0992 57.7428 68.0868C59.5732 68.0868 61.1156 65.466 61.1156 62.362C61.1281 62.1723 61.2122 61.9944 61.351 61.8644C61.4897 61.7344 61.6727 61.6621 61.8628 61.6621C62.053 61.6621 62.236 61.7344 62.3747 61.8644C62.5135 61.9944 62.5976 62.1723 62.61 62.362C62.61 66.41 60.4788 69.5812 57.7428 69.5812Z" fill="#BB0A08"/>
<path d="M69.0358 69.5812C68.8461 69.5688 68.6682 69.4846 68.5382 69.3459C68.4083 69.2071 68.3359 69.0241 68.3359 68.834C68.3359 68.6439 68.4083 68.4609 68.5382 68.3221C68.6682 68.1833 68.8461 68.0992 69.0358 68.0868C70.8662 68.0868 72.4086 65.466 72.4086 62.362C72.421 62.1723 72.5052 61.9944 72.6439 61.8644C72.7827 61.7344 72.9657 61.6621 73.1558 61.6621C73.3459 61.6621 73.5289 61.7344 73.6677 61.8644C73.8065 61.9944 73.8906 62.1723 73.903 62.362C73.919 66.41 71.7654 69.5812 69.0358 69.5812Z" fill="#BB0A08"/>
<path d="M80.3171 69.58C80.1273 69.5676 79.9495 69.4835 79.8195 69.3447C79.6895 69.206 79.6172 69.023 79.6172 68.8328C79.6172 68.6427 79.6895 68.4597 79.8195 68.3209C79.9495 68.1822 80.1273 68.0981 80.3171 68.0856C82.1443 68.0856 83.6899 65.4648 83.6899 62.3608C83.6899 62.1631 83.7684 61.9734 83.9082 61.8336C84.0481 61.6938 84.2377 61.6152 84.4355 61.6152C84.6332 61.6152 84.8229 61.6938 84.9627 61.8336C85.1025 61.9734 85.1811 62.1631 85.1811 62.3608C85.1907 66.4088 83.0563 69.58 80.3171 69.58Z" fill="#BB0A08"/>
<path d="M91.618 69.58C91.5158 69.5867 91.4133 69.5724 91.3168 69.5378C91.2204 69.5033 91.132 69.4494 91.0572 69.3793C90.9824 69.3093 90.9228 69.2247 90.8821 69.1307C90.8413 69.0367 90.8203 68.9353 90.8203 68.8328C90.8203 68.7304 90.8413 68.629 90.8821 68.535C90.9228 68.441 90.9824 68.3564 91.0572 68.2863C91.132 68.2163 91.2204 68.1623 91.3168 68.1278C91.4133 68.0933 91.5158 68.0789 91.618 68.0856C93.4452 68.0856 94.9908 65.4648 94.9908 62.3608C94.9908 62.1631 95.0694 61.9734 95.2092 61.8336C95.349 61.6938 95.5387 61.6152 95.7364 61.6152C95.9342 61.6152 96.1238 61.6938 96.2637 61.8336C96.4035 61.9734 96.482 62.1631 96.482 62.3608C96.482 66.4088 94.3444 69.58 91.618 69.58Z" fill="#BB0A08"/>
<path d="M102.911 69.5812C102.721 69.5688 102.543 69.4846 102.413 69.3459C102.283 69.2071 102.211 69.0241 102.211 68.834C102.211 68.6439 102.283 68.4609 102.413 68.3221C102.543 68.1833 102.721 68.0992 102.911 68.0868C104.741 68.0868 106.284 65.466 106.284 62.362C106.296 62.1723 106.38 61.9944 106.519 61.8644C106.658 61.7344 106.841 61.6621 107.031 61.6621C107.221 61.6621 107.404 61.7344 107.543 61.8644C107.681 61.9944 107.766 62.1723 107.778 62.362C107.778 66.41 105.64 69.5812 102.911 69.5812Z" fill="#BB0A08"/>
<path d="M114.204 69.5812C114.014 69.5688 113.836 69.4846 113.706 69.3459C113.576 69.2071 113.504 69.0241 113.504 68.834C113.504 68.6439 113.576 68.4609 113.706 68.3221C113.836 68.1833 114.014 68.0992 114.204 68.0868C116.031 68.0868 117.577 65.466 117.577 62.362C117.589 62.1723 117.673 61.9944 117.812 61.8644C117.951 61.7344 118.134 61.6621 118.324 61.6621C118.514 61.6621 118.697 61.7344 118.836 61.8644C118.974 61.9944 119.059 62.1723 119.071 62.362C119.071 66.41 116.933 69.5812 114.204 69.5812Z" fill="#BB0A08"/>
<g opacity="0.3">
<path d="M57.7428 69.5812C57.5531 69.5688 57.3752 69.4846 57.2453 69.3459C57.1153 69.2071 57.043 69.0241 57.043 68.834C57.043 68.6439 57.1153 68.4609 57.2453 68.3221C57.3752 68.1833 57.5531 68.0992 57.7428 68.0868C59.5732 68.0868 61.1156 65.466 61.1156 62.362C61.1281 62.1723 61.2122 61.9944 61.351 61.8644C61.4897 61.7344 61.6727 61.6621 61.8628 61.6621C62.053 61.6621 62.236 61.7344 62.3747 61.8644C62.5135 61.9944 62.5976 62.1723 62.61 62.362C62.61 66.41 60.4788 69.5812 57.7428 69.5812Z" fill="black"/>
<path d="M69.0358 69.5812C68.8461 69.5688 68.6682 69.4846 68.5382 69.3459C68.4083 69.2071 68.3359 69.0241 68.3359 68.834C68.3359 68.6439 68.4083 68.4609 68.5382 68.3221C68.6682 68.1833 68.8461 68.0992 69.0358 68.0868C70.8662 68.0868 72.4086 65.466 72.4086 62.362C72.421 62.1723 72.5052 61.9944 72.6439 61.8644C72.7827 61.7344 72.9657 61.6621 73.1558 61.6621C73.3459 61.6621 73.5289 61.7344 73.6677 61.8644C73.8065 61.9944 73.8906 62.1723 73.903 62.362C73.919 66.41 71.7654 69.5812 69.0358 69.5812Z" fill="black"/>
<path d="M80.3171 69.582C80.1273 69.5696 79.9495 69.4854 79.8195 69.3467C79.6895 69.2079 79.6172 69.0249 79.6172 68.8348C79.6172 68.6447 79.6895 68.4617 79.8195 68.3229C79.9495 68.1841 80.1273 68.1 80.3171 68.0876C82.1443 68.0876 83.6899 65.4668 83.6899 62.3628C83.6899 62.165 83.7684 61.9754 83.9082 61.8356C84.0481 61.6957 84.2377 61.6172 84.4355 61.6172C84.6332 61.6172 84.8229 61.6957 84.9627 61.8356C85.1025 61.9754 85.1811 62.165 85.1811 62.3628C85.1907 66.4108 83.0563 69.582 80.3171 69.582Z" fill="black"/>
<path d="M91.6219 69.582C91.5197 69.5887 91.4172 69.5743 91.3207 69.5398C91.2243 69.5053 91.1359 69.4513 91.0611 69.3813C90.9863 69.3113 90.9267 69.2266 90.886 69.1326C90.8452 69.0386 90.8242 68.9372 90.8242 68.8348C90.8242 68.7323 90.8452 68.631 90.886 68.537C90.9267 68.443 90.9863 68.3583 91.0611 68.2883C91.1359 68.2182 91.2243 68.1643 91.3207 68.1298C91.4172 68.0952 91.5197 68.0809 91.6219 68.0876C93.4491 68.0876 94.9947 65.4668 94.9947 62.3628C94.9947 62.165 95.0733 61.9754 95.2131 61.8356C95.353 61.6957 95.5426 61.6172 95.7403 61.6172C95.9381 61.6172 96.1277 61.6957 96.2676 61.8356C96.4074 61.9754 96.4859 62.165 96.4859 62.3628C96.4859 66.4108 94.3483 69.582 91.6219 69.582Z" fill="black"/>
<path d="M102.911 69.5812C102.721 69.5688 102.543 69.4846 102.413 69.3459C102.283 69.2071 102.211 69.0241 102.211 68.834C102.211 68.6439 102.283 68.4609 102.413 68.3221C102.543 68.1833 102.721 68.0992 102.911 68.0868C104.741 68.0868 106.284 65.466 106.284 62.362C106.296 62.1723 106.38 61.9944 106.519 61.8644C106.658 61.7344 106.841 61.6621 107.031 61.6621C107.221 61.6621 107.404 61.7344 107.543 61.8644C107.681 61.9944 107.766 62.1723 107.778 62.362C107.778 66.41 105.64 69.5812 102.911 69.5812Z" fill="black"/>
<path d="M114.204 69.5812C114.014 69.5688 113.836 69.4846 113.706 69.3459C113.576 69.2071 113.504 69.0241 113.504 68.834C113.504 68.6439 113.576 68.4609 113.706 68.3221C113.836 68.1833 114.014 68.0992 114.204 68.0868C116.031 68.0868 117.577 65.466 117.577 62.362C117.589 62.1723 117.673 61.9944 117.812 61.8644C117.951 61.7344 118.134 61.6621 118.324 61.6621C118.514 61.6621 118.697 61.7344 118.836 61.8644C118.974 61.9944 119.059 62.1723 119.071 62.362C119.071 66.41 116.933 69.5812 114.204 69.5812Z" fill="black"/>
</g>
<path d="M50.6657 63.1254H123.363C124.338 63.1449 125.272 63.5195 125.99 64.1787C126.709 64.838 127.161 65.7367 127.264 66.7062L131.29 112.092C131.339 112.547 131.29 113.008 131.148 113.443C131.006 113.879 130.773 114.279 130.464 114.617C130.155 114.956 129.779 115.225 129.358 115.407C128.938 115.589 128.484 115.679 128.026 115.673H55.3249C54.3506 115.652 53.4173 115.277 52.6994 114.618C51.9815 113.959 51.5281 113.061 51.4241 112.092L47.4017 66.7062C47.3522 66.2507 47.4001 65.7899 47.5423 65.3543C47.6844 64.9187 47.9176 64.5184 48.2262 64.1797C48.5349 63.8411 48.912 63.572 49.3326 63.3902C49.7532 63.2085 50.2076 63.1182 50.6657 63.1254Z" fill="#BB0A08"/>
<path opacity="0.4" d="M50.6657 63.1254H123.363C124.338 63.1449 125.272 63.5195 125.99 64.1787C126.709 64.838 127.161 65.7367 127.264 66.7062L131.29 112.092C131.339 112.547 131.29 113.008 131.148 113.443C131.006 113.879 130.773 114.279 130.464 114.617C130.155 114.956 129.779 115.225 129.358 115.407C128.938 115.589 128.484 115.679 128.026 115.673H55.3249C54.3506 115.652 53.4173 115.277 52.6994 114.618C51.9815 113.959 51.5281 113.061 51.4241 112.092L47.4017 66.7062C47.3522 66.2507 47.4001 65.7899 47.5423 65.3543C47.6844 64.9187 47.9176 64.5184 48.2262 64.1797C48.5349 63.8411 48.912 63.572 49.3326 63.3902C49.7532 63.2085 50.2076 63.1182 50.6657 63.1254Z" fill="#FAFAFA"/>
<path d="M122.759 63.127H50.0584C49.0968 63.1385 48.1754 63.5145 47.4804 64.1792C46.7854 64.8439 46.3687 65.7477 46.3144 66.7078L44.2664 112.093C44.242 112.556 44.3123 113.018 44.4729 113.453C44.6335 113.887 44.8811 114.284 45.2004 114.619C45.5198 114.954 45.9042 115.221 46.3302 115.402C46.7561 115.584 47.2146 115.676 47.6776 115.674H120.385C121.346 115.663 122.268 115.287 122.963 114.622C123.658 113.957 124.075 113.054 124.129 112.093L126.18 66.7078C126.204 66.2448 126.133 65.7817 125.972 65.347C125.81 64.9123 125.562 64.5151 125.242 64.1798C124.921 63.8446 124.536 63.5782 124.109 63.3972C123.682 63.2162 123.223 63.1242 122.759 63.127Z" fill="#BB0A08"/>
<path opacity="0.2" d="M122.759 63.127H50.0584C49.0968 63.1385 48.1754 63.5145 47.4804 64.1792C46.7854 64.8439 46.3687 65.7477 46.3144 66.7078L44.2664 112.093C44.242 112.556 44.3123 113.018 44.4729 113.453C44.6335 113.887 44.8811 114.284 45.2004 114.619C45.5198 114.954 45.9042 115.221 46.3302 115.402C46.7561 115.584 47.2146 115.676 47.6776 115.674H120.385C121.346 115.663 122.268 115.287 122.963 114.622C123.658 113.957 124.075 113.054 124.129 112.093L126.18 66.7078C126.204 66.2448 126.133 65.7817 125.972 65.347C125.81 64.9123 125.562 64.5151 125.242 64.1798C124.921 63.8446 124.536 63.5782 124.109 63.3972C123.682 63.2162 123.223 63.1242 122.759 63.127Z" fill="#FAFAFA"/>
<path d="M51.3924 103.679L53.0852 66.1978C53.1055 65.8301 53.2649 65.4839 53.5312 65.2295C53.7975 64.9752 54.1505 64.8317 54.5188 64.8282H118.144C118.322 64.827 118.497 64.8622 118.661 64.9314C118.824 65.0006 118.972 65.1025 119.094 65.2307C119.217 65.359 119.312 65.5109 119.373 65.6772C119.435 65.8435 119.462 66.0206 119.453 66.1978L117.757 103.679C117.737 104.047 117.577 104.393 117.311 104.648C117.045 104.902 116.692 105.045 116.324 105.049H52.7012C52.5238 105.05 52.3481 105.015 52.1847 104.946C52.0214 104.876 51.874 104.775 51.7514 104.646C51.6289 104.518 51.5338 104.366 51.4721 104.2C51.4103 104.034 51.3832 103.856 51.3924 103.679Z" fill="#BB0A08"/>
<path opacity="0.1" d="M51.3924 103.679L53.0852 66.1978C53.1055 65.8301 53.2649 65.4839 53.5312 65.2295C53.7975 64.9752 54.1505 64.8317 54.5188 64.8282H118.144C118.322 64.827 118.497 64.8622 118.661 64.9314C118.824 65.0006 118.972 65.1025 119.094 65.2307C119.217 65.359 119.312 65.5109 119.373 65.6772C119.435 65.8435 119.462 66.0206 119.453 66.1978L117.757 103.679C117.737 104.047 117.577 104.393 117.311 104.648C117.045 104.902 116.692 105.045 116.324 105.049H52.7012C52.5238 105.05 52.3481 105.015 52.1847 104.946C52.0214 104.876 51.874 104.775 51.7514 104.646C51.6289 104.518 51.5338 104.366 51.4721 104.2C51.4103 104.034 51.3832 103.856 51.3924 103.679Z" fill="#FAFAFA"/>
<path opacity="0.1" d="M49.5961 106.738L51.3721 67.3783C51.3925 66.9922 51.5595 66.6285 51.839 66.3615C52.1186 66.0944 52.4895 65.9442 52.8761 65.9415H119.692C119.878 65.9399 120.063 65.9764 120.234 66.0489C120.406 66.1214 120.561 66.2283 120.689 66.3629C120.818 66.4975 120.918 66.657 120.982 66.8317C121.047 67.0063 121.075 67.1923 121.065 67.3783L119.286 106.738C119.265 107.124 119.099 107.488 118.82 107.755C118.541 108.023 118.171 108.174 117.785 108.178H50.9625C50.7764 108.179 50.5921 108.142 50.4209 108.07C50.2497 107.997 50.0953 107.889 49.9672 107.754C49.8391 107.619 49.7401 107.46 49.6763 107.285C49.6124 107.11 49.5852 106.924 49.5961 106.738Z" fill="black"/>
<path d="M47.9476 109.914L49.8004 68.8583C49.8252 68.4568 50.0004 68.0795 50.291 67.8013C50.5816 67.5232 50.9662 67.3647 51.3684 67.3575H121.068C121.262 67.3559 121.455 67.3941 121.634 67.4699C121.813 67.5456 121.975 67.6572 122.109 67.7978C122.243 67.9384 122.347 68.1051 122.415 68.2875C122.482 68.4698 122.512 68.6641 122.501 68.8583L120.639 109.914C120.614 110.316 120.439 110.693 120.148 110.971C119.858 111.249 119.473 111.408 119.071 111.415H49.3812C49.1866 111.417 48.9937 111.379 48.8143 111.304C48.635 111.228 48.4731 111.116 48.3387 110.976C48.2043 110.835 48.1002 110.668 48.0329 110.486C47.9657 110.303 47.9366 110.109 47.9476 109.914Z" fill="#FAFAFA"/>
<path d="M114.192 69.8174C114.061 69.8177 113.931 69.7911 113.811 69.7393C113.691 69.6875 113.582 69.6116 113.492 69.5162C113.402 69.4209 113.333 69.3081 113.288 69.1849C113.243 69.0617 113.224 68.9307 113.232 68.7998C113.244 68.5431 113.354 68.3007 113.539 68.1223C113.724 67.9439 113.97 67.8428 114.227 67.8398C114.358 67.8396 114.488 67.8662 114.609 67.918C114.729 67.9698 114.837 68.0457 114.927 68.1411C115.017 68.2364 115.087 68.3492 115.132 68.4724C115.176 68.5956 115.195 68.7266 115.187 68.8574C115.175 69.1142 115.065 69.3565 114.88 69.535C114.695 69.7134 114.449 69.8145 114.192 69.8174Z" fill="#BB0A08"/>
<path d="M102.899 69.8174C102.768 69.8177 102.638 69.7911 102.518 69.7393C102.398 69.6875 102.289 69.6116 102.199 69.5162C102.109 69.4209 102.04 69.3081 101.995 69.1849C101.95 69.0617 101.931 68.9307 101.939 68.7998C101.951 68.5431 102.061 68.3007 102.246 68.1223C102.431 67.9439 102.677 67.8428 102.934 67.8398C103.065 67.8396 103.195 67.8662 103.316 67.918C103.436 67.9698 103.545 68.0457 103.634 68.1411C103.724 68.2364 103.794 68.3492 103.839 68.4724C103.883 68.5956 103.902 68.7266 103.894 68.8574C103.883 69.1144 103.773 69.3573 103.588 69.5359C103.403 69.7145 103.156 69.8152 102.899 69.8174Z" fill="#BB0A08"/>
<path d="M91.6063 69.8174C91.4752 69.8177 91.3455 69.7911 91.2251 69.7393C91.1047 69.6875 90.9962 69.6116 90.9062 69.5162C90.8163 69.4209 90.7468 69.3081 90.7021 69.1849C90.6574 69.0617 90.6384 68.9307 90.6463 68.7998C90.6592 68.5434 90.7693 68.3014 90.9541 68.1232C91.139 67.9449 91.3847 67.8436 91.6415 67.8398C91.7725 67.8396 91.9023 67.8662 92.0226 67.918C92.143 67.9698 92.2515 68.0457 92.3415 68.1411C92.4314 68.2364 92.5009 68.3492 92.5456 68.4724C92.5903 68.5956 92.6093 68.7266 92.6015 68.8574C92.59 69.1144 92.4804 69.3573 92.2953 69.5359C92.1101 69.7145 91.8635 69.8152 91.6063 69.8174Z" fill="#BB0A08"/>
<path d="M80.3172 69.8174C80.1861 69.8177 80.0564 69.7911 79.936 69.7393C79.8156 69.6875 79.7071 69.6116 79.6172 69.5162C79.5272 69.4209 79.4578 69.3081 79.4131 69.1849C79.3683 69.0617 79.3493 68.9307 79.3572 68.7998C79.371 68.5431 79.4817 68.3011 79.6671 68.1229C79.8524 67.9447 80.0985 67.8435 80.3556 67.8398C80.4867 67.8396 80.6164 67.8662 80.7368 67.918C80.8572 67.9698 80.9657 68.0457 81.0556 68.1411C81.1456 68.2364 81.215 68.3492 81.2597 68.4724C81.3045 68.5956 81.3235 68.7266 81.3156 68.8574C81.3041 69.115 81.1941 69.3583 81.0082 69.537C80.8224 69.7156 80.575 69.8161 80.3172 69.8174Z" fill="#BB0A08"/>
<path d="M69.0242 69.8174C68.8932 69.8177 68.7634 69.7911 68.643 69.7393C68.5227 69.6875 68.4141 69.6116 68.3242 69.5162C68.2343 69.4209 68.1648 69.3081 68.1201 69.1849C68.0754 69.0617 68.0564 68.9307 68.0642 68.7998C68.0765 68.5431 68.1863 68.3007 68.3713 68.1223C68.5563 67.9439 68.8024 67.8428 69.0594 67.8398C69.1905 67.8396 69.3202 67.8662 69.4406 67.918C69.561 67.9698 69.6695 68.0457 69.7595 68.1411C69.8494 68.2364 69.9189 68.3492 69.9636 68.4724C70.0083 68.5956 70.0273 68.7266 70.0194 68.8574C70.0072 69.1142 69.8974 69.3565 69.7124 69.535C69.5274 69.7134 69.2812 69.8145 69.0242 69.8174Z" fill="#BB0A08"/>
<path d="M57.7313 69.8174C57.6002 69.8177 57.4705 69.7911 57.3501 69.7393C57.2297 69.6875 57.1212 69.6116 57.0312 69.5162C56.9413 69.4209 56.8718 69.3081 56.8271 69.1849C56.7824 69.0617 56.7634 68.9307 56.7713 68.7998C56.7835 68.5431 56.8933 68.3007 57.0783 68.1223C57.2633 67.9439 57.5095 67.8428 57.7665 67.8398C57.8975 67.8396 58.0273 67.8662 58.1476 67.918C58.268 67.9698 58.3766 68.0457 58.4665 68.1411C58.5564 68.2364 58.6259 68.3492 58.6706 68.4724C58.7153 68.5956 58.7343 68.7266 58.7265 68.8574C58.715 69.1144 58.6054 69.3573 58.4203 69.5359C58.2351 69.7145 57.9885 69.8152 57.7313 69.8174Z" fill="#BB0A08"/>
<g opacity="0.1">
<path d="M114.192 69.8174C114.061 69.8177 113.931 69.7911 113.811 69.7393C113.691 69.6875 113.582 69.6116 113.492 69.5162C113.402 69.4209 113.333 69.3081 113.288 69.1849C113.243 69.0617 113.224 68.9307 113.232 68.7998C113.244 68.5431 113.354 68.3007 113.539 68.1223C113.724 67.9439 113.97 67.8428 114.227 67.8398C114.358 67.8396 114.488 67.8662 114.609 67.918C114.729 67.9698 114.837 68.0457 114.927 68.1411C115.017 68.2364 115.087 68.3492 115.132 68.4724C115.176 68.5956 115.195 68.7266 115.187 68.8574C115.175 69.1142 115.065 69.3565 114.88 69.535C114.695 69.7134 114.449 69.8145 114.192 69.8174Z" fill="#FAFAFA"/>
<path d="M102.899 69.8174C102.768 69.8177 102.638 69.7911 102.518 69.7393C102.398 69.6875 102.289 69.6116 102.199 69.5162C102.109 69.4209 102.04 69.3081 101.995 69.1849C101.95 69.0617 101.931 68.9307 101.939 68.7998C101.951 68.5431 102.061 68.3007 102.246 68.1223C102.431 67.9439 102.677 67.8428 102.934 67.8398C103.065 67.8396 103.195 67.8662 103.316 67.918C103.436 67.9698 103.545 68.0457 103.634 68.1411C103.724 68.2364 103.794 68.3492 103.839 68.4724C103.883 68.5956 103.902 68.7266 103.894 68.8574C103.883 69.1144 103.773 69.3573 103.588 69.5359C103.403 69.7145 103.156 69.8152 102.899 69.8174Z" fill="#FAFAFA"/>
<path d="M91.6063 69.8174C91.4752 69.8177 91.3455 69.7911 91.2251 69.7393C91.1047 69.6875 90.9962 69.6116 90.9062 69.5162C90.8163 69.4209 90.7468 69.3081 90.7021 69.1849C90.6574 69.0617 90.6384 68.9307 90.6463 68.7998C90.6592 68.5434 90.7693 68.3014 90.9541 68.1232C91.139 67.9449 91.3847 67.8436 91.6415 67.8398C91.7725 67.8396 91.9023 67.8662 92.0226 67.918C92.143 67.9698 92.2515 68.0457 92.3415 68.1411C92.4314 68.2364 92.5009 68.3492 92.5456 68.4724C92.5903 68.5956 92.6093 68.7266 92.6015 68.8574C92.59 69.1144 92.4804 69.3573 92.2953 69.5359C92.1101 69.7145 91.8635 69.8152 91.6063 69.8174Z" fill="#FAFAFA"/>
<path d="M80.3172 69.8174C80.1861 69.8177 80.0564 69.7911 79.936 69.7393C79.8156 69.6875 79.7071 69.6116 79.6172 69.5162C79.5272 69.4209 79.4578 69.3081 79.4131 69.1849C79.3683 69.0617 79.3493 68.9307 79.3572 68.7998C79.371 68.5431 79.4817 68.3011 79.6671 68.1229C79.8524 67.9447 80.0985 67.8435 80.3556 67.8398C80.4867 67.8396 80.6164 67.8662 80.7368 67.918C80.8572 67.9698 80.9657 68.0457 81.0556 68.1411C81.1456 68.2364 81.215 68.3492 81.2597 68.4724C81.3045 68.5956 81.3235 68.7266 81.3156 68.8574C81.3041 69.115 81.1941 69.3583 81.0082 69.537C80.8224 69.7156 80.575 69.8161 80.3172 69.8174Z" fill="#FAFAFA"/>
<path d="M69.0242 69.8174C68.8932 69.8177 68.7634 69.7911 68.643 69.7393C68.5227 69.6875 68.4141 69.6116 68.3242 69.5162C68.2343 69.4209 68.1648 69.3081 68.1201 69.1849C68.0754 69.0617 68.0564 68.9307 68.0642 68.7998C68.0765 68.5431 68.1863 68.3007 68.3713 68.1223C68.5563 67.9439 68.8024 67.8428 69.0594 67.8398C69.1905 67.8396 69.3202 67.8662 69.4406 67.918C69.561 67.9698 69.6695 68.0457 69.7595 68.1411C69.8494 68.2364 69.9189 68.3492 69.9636 68.4724C70.0083 68.5956 70.0273 68.7266 70.0194 68.8574C70.0072 69.1142 69.8974 69.3565 69.7124 69.535C69.5274 69.7134 69.2812 69.8145 69.0242 69.8174Z" fill="#FAFAFA"/>
<path d="M57.7313 69.8174C57.6002 69.8177 57.4705 69.7911 57.3501 69.7393C57.2297 69.6875 57.1212 69.6116 57.0312 69.5162C56.9413 69.4209 56.8718 69.3081 56.8271 69.1849C56.7824 69.0617 56.7634 68.9307 56.7713 68.7998C56.7835 68.5431 56.8933 68.3007 57.0783 68.1223C57.2633 67.9439 57.5095 67.8428 57.7665 67.8398C57.8975 67.8396 58.0273 67.8662 58.1476 67.918C58.268 67.9698 58.3766 68.0457 58.4665 68.1411C58.5564 68.2364 58.6259 68.3492 58.6706 68.4724C58.7153 68.5956 58.7343 68.7266 58.7265 68.8574C58.715 69.1144 58.6054 69.3573 58.4203 69.5359C58.2351 69.7145 57.9885 69.8152 57.7313 69.8174Z" fill="#FAFAFA"/>
</g>
<path d="M60.5535 73.3953H54.8735C54.7912 73.3959 54.7096 73.3795 54.6339 73.347C54.5582 73.3146 54.4901 73.2667 54.4339 73.2066C54.3776 73.1464 54.3345 73.0753 54.3072 72.9976C54.2798 72.9199 54.2689 72.8374 54.2751 72.7553C54.2815 72.5875 54.3509 72.4284 54.4696 72.3097C54.5883 72.1911 54.7474 72.1216 54.9151 72.1153H60.5951C60.6775 72.1146 60.7591 72.131 60.8347 72.1635C60.9104 72.196 60.9785 72.2438 61.0348 72.3039C61.091 72.3641 61.1342 72.4353 61.1615 72.5129C61.1888 72.5906 61.1997 72.6731 61.1935 72.7553C61.1872 72.923 61.1177 73.0821 60.9991 73.2008C60.8804 73.3195 60.7212 73.3889 60.5535 73.3953Z" fill="#BB0A08"/>
<path d="M71.8465 73.3953H66.1665C66.0841 73.3959 66.0026 73.3795 65.9269 73.347C65.8512 73.3146 65.7831 73.2667 65.7268 73.2066C65.6706 73.1464 65.6275 73.0753 65.6001 72.9976C65.5728 72.9199 65.5619 72.8374 65.5681 72.7553C65.5746 72.5848 65.6463 72.4235 65.7684 72.3044C65.8905 72.1853 66.0536 72.1176 66.2241 72.1153H71.9009C71.9834 72.1146 72.0651 72.131 72.1409 72.1635C72.2168 72.1959 72.2851 72.2437 72.3416 72.3038C72.398 72.3639 72.4415 72.435 72.4692 72.5127C72.4969 72.5904 72.5082 72.673 72.5025 72.7553C72.496 72.9257 72.4243 73.0871 72.3022 73.2061C72.1801 73.3252 72.017 73.3929 71.8465 73.3953Z" fill="#BB0A08"/>
<path d="M83.1385 73.3953H77.4585C77.376 73.3959 77.2943 73.3795 77.2185 73.347C77.1427 73.3146 77.0743 73.2668 77.0179 73.2067C76.9614 73.1466 76.9179 73.0755 76.8902 72.9978C76.8625 72.9201 76.8512 72.8375 76.8569 72.7553C76.8635 72.5848 76.9352 72.4235 77.0572 72.3044C77.1793 72.1853 77.3424 72.1176 77.5129 72.1153H83.1961C83.2785 72.1146 83.3601 72.131 83.4357 72.1635C83.5114 72.196 83.5795 72.2438 83.6358 72.3039C83.692 72.3641 83.7352 72.4353 83.7625 72.5129C83.7898 72.5906 83.8007 72.6731 83.7945 72.7553C83.7887 72.9259 83.7173 73.0878 83.5951 73.207C83.4728 73.3263 83.3093 73.3937 83.1385 73.3953Z" fill="#BB0A08"/>
<path d="M94.4285 73.3953H88.7485C88.6662 73.3959 88.5846 73.3795 88.5089 73.347C88.4332 73.3146 88.3651 73.2667 88.3089 73.2066C88.2526 73.1464 88.2095 73.0753 88.1822 72.9976C88.1548 72.9199 88.1439 72.8374 88.1501 72.7553C88.1565 72.5875 88.2259 72.4284 88.3446 72.3097C88.4633 72.1911 88.6224 72.1216 88.7901 72.1153H94.4701C94.5525 72.1146 94.6341 72.131 94.7097 72.1635C94.7854 72.196 94.8535 72.2438 94.9098 72.3039C94.966 72.3641 95.0092 72.4353 95.0365 72.5129C95.0638 72.5906 95.0747 72.6731 95.0685 72.7553C95.0622 72.923 94.9927 73.0821 94.8741 73.2008C94.7554 73.3195 94.5962 73.3889 94.4285 73.3953Z" fill="#BB0A08"/>
<path d="M105.722 73.3953H100.042C99.9592 73.3959 99.8776 73.3795 99.8019 73.347C99.7262 73.3146 99.6581 73.2667 99.6018 73.2066C99.5456 73.1464 99.5025 73.0753 99.4751 72.9976C99.4478 72.9199 99.4369 72.8374 99.4431 72.7553C99.4496 72.5848 99.5213 72.4235 99.6434 72.3044C99.7655 72.1853 99.9286 72.1176 100.099 72.1153H105.779C105.861 72.1146 105.943 72.131 106.019 72.1635C106.094 72.196 106.163 72.2438 106.219 72.3039C106.275 72.3641 106.318 72.4353 106.345 72.5129C106.373 72.5906 106.384 72.6731 106.378 72.7553C106.371 72.9257 106.299 73.0871 106.177 73.2061C106.055 73.3252 105.892 73.3929 105.722 73.3953Z" fill="#BB0A08"/>
<path d="M117.014 73.3953H111.334C111.252 73.3959 111.171 73.3795 111.095 73.347C111.019 73.3146 110.951 73.2667 110.895 73.2066C110.839 73.1464 110.795 73.0753 110.768 72.9976C110.741 72.9199 110.73 72.8374 110.736 72.7553C110.743 72.5848 110.814 72.4235 110.936 72.3044C111.058 72.1853 111.222 72.1176 111.392 72.1153H117.069C117.151 72.1146 117.233 72.131 117.309 72.1635C117.385 72.1959 117.453 72.2437 117.51 72.3038C117.566 72.3639 117.609 72.435 117.637 72.5127C117.665 72.5904 117.676 72.673 117.67 72.7553C117.664 72.9257 117.592 73.0871 117.47 73.2061C117.348 73.3252 117.185 73.3929 117.014 73.3953Z" fill="#BB0A08"/>
<g opacity="0.3">
<path d="M60.5535 73.3953H54.8735C54.7912 73.3959 54.7096 73.3795 54.6339 73.347C54.5582 73.3146 54.4901 73.2667 54.4339 73.2066C54.3776 73.1464 54.3345 73.0753 54.3072 72.9976C54.2798 72.9199 54.2689 72.8374 54.2751 72.7553C54.2815 72.5875 54.3509 72.4284 54.4696 72.3097C54.5883 72.1911 54.7474 72.1216 54.9151 72.1153H60.5951C60.6775 72.1146 60.7591 72.131 60.8347 72.1635C60.9104 72.196 60.9785 72.2438 61.0348 72.3039C61.091 72.3641 61.1342 72.4353 61.1615 72.5129C61.1888 72.5906 61.1997 72.6731 61.1935 72.7553C61.1872 72.923 61.1177 73.0821 60.9991 73.2008C60.8804 73.3195 60.7212 73.3889 60.5535 73.3953Z" fill="black"/>
<path d="M71.8465 73.3953H66.1665C66.0841 73.3959 66.0026 73.3795 65.9269 73.347C65.8512 73.3146 65.7831 73.2667 65.7268 73.2066C65.6706 73.1464 65.6275 73.0753 65.6001 72.9976C65.5728 72.9199 65.5619 72.8374 65.5681 72.7553C65.5746 72.5848 65.6463 72.4235 65.7684 72.3044C65.8905 72.1853 66.0536 72.1176 66.2241 72.1153H71.9009C71.9834 72.1146 72.0651 72.131 72.1409 72.1635C72.2168 72.1959 72.2851 72.2437 72.3416 72.3038C72.398 72.3639 72.4415 72.435 72.4692 72.5127C72.4969 72.5904 72.5082 72.673 72.5025 72.7553C72.496 72.9257 72.4243 73.0871 72.3022 73.2061C72.1801 73.3252 72.017 73.3929 71.8465 73.3953Z" fill="black"/>
<path d="M83.1385 73.3953H77.4585C77.376 73.3959 77.2943 73.3795 77.2185 73.347C77.1427 73.3146 77.0743 73.2668 77.0179 73.2067C76.9614 73.1466 76.9179 73.0755 76.8902 72.9978C76.8625 72.9201 76.8512 72.8375 76.8569 72.7553C76.8635 72.5848 76.9352 72.4235 77.0572 72.3044C77.1793 72.1853 77.3424 72.1176 77.5129 72.1153H83.1961C83.2785 72.1146 83.3601 72.131 83.4357 72.1635C83.5114 72.196 83.5795 72.2438 83.6358 72.3039C83.692 72.3641 83.7352 72.4353 83.7625 72.5129C83.7898 72.5906 83.8007 72.6731 83.7945 72.7553C83.7887 72.9259 83.7173 73.0878 83.5951 73.207C83.4728 73.3263 83.3093 73.3937 83.1385 73.3953Z" fill="black"/>
<path d="M94.4285 73.3953H88.7485C88.6662 73.3959 88.5846 73.3795 88.5089 73.347C88.4332 73.3146 88.3651 73.2667 88.3089 73.2066C88.2526 73.1464 88.2095 73.0753 88.1822 72.9976C88.1548 72.9199 88.1439 72.8374 88.1501 72.7553C88.1565 72.5875 88.2259 72.4284 88.3446 72.3097C88.4633 72.1911 88.6224 72.1216 88.7901 72.1153H94.4701C94.5525 72.1146 94.6341 72.131 94.7097 72.1635C94.7854 72.196 94.8535 72.2438 94.9098 72.3039C94.966 72.3641 95.0092 72.4353 95.0365 72.5129C95.0638 72.5906 95.0747 72.6731 95.0685 72.7553C95.0622 72.923 94.9927 73.0821 94.8741 73.2008C94.7554 73.3195 94.5962 73.3889 94.4285 73.3953Z" fill="black"/>
<path d="M105.722 73.3953H100.042C99.9592 73.3959 99.8776 73.3795 99.8019 73.347C99.7262 73.3146 99.6581 73.2667 99.6018 73.2066C99.5456 73.1464 99.5025 73.0753 99.4751 72.9976C99.4478 72.9199 99.4369 72.8374 99.4431 72.7553C99.4496 72.5848 99.5213 72.4235 99.6434 72.3044C99.7655 72.1853 99.9286 72.1176 100.099 72.1153H105.779C105.861 72.1146 105.943 72.131 106.019 72.1635C106.094 72.196 106.163 72.2438 106.219 72.3039C106.275 72.3641 106.318 72.4353 106.345 72.5129C106.373 72.5906 106.384 72.6731 106.378 72.7553C106.371 72.9257 106.299 73.0871 106.177 73.2061C106.055 73.3252 105.892 73.3929 105.722 73.3953Z" fill="black"/>
<path d="M117.014 73.3953H111.334C111.252 73.3959 111.171 73.3795 111.095 73.347C111.019 73.3146 110.951 73.2667 110.895 73.2066C110.839 73.1464 110.795 73.0753 110.768 72.9976C110.741 72.9199 110.73 72.8374 110.736 72.7553C110.743 72.5848 110.814 72.4235 110.936 72.3044C111.058 72.1853 111.222 72.1176 111.392 72.1153H117.069C117.151 72.1146 117.233 72.131 117.309 72.1635C117.385 72.1959 117.453 72.2437 117.51 72.3038C117.566 72.3639 117.609 72.435 117.637 72.5127C117.665 72.5904 117.676 72.673 117.67 72.7553C117.664 72.9257 117.592 73.0871 117.47 73.2061C117.348 73.3252 117.185 73.3929 117.014 73.3953Z" fill="black"/>
</g>
<path d="M60.8663 85.4814H53.4679C53.3056 85.4821 53.1449 85.4496 52.9956 85.3861C52.8463 85.3225 52.7115 85.2292 52.5995 85.1118C52.4875 84.9944 52.4006 84.8554 52.3442 84.7032C52.2877 84.5511 52.2628 84.3891 52.2711 84.227L52.5911 76.8286C52.6105 76.4923 52.7567 76.1759 53.0001 75.9431C53.2436 75.7104 53.5663 75.5785 53.9031 75.5742H61.3015C61.4637 75.5736 61.6244 75.606 61.7737 75.6696C61.923 75.7331 62.0578 75.8265 62.1698 75.9439C62.2818 76.0613 62.3687 76.2003 62.4252 76.3524C62.4817 76.5045 62.5066 76.6666 62.4983 76.8286L62.1783 84.227C62.1581 84.563 62.0117 84.879 61.7684 85.1117C61.5251 85.3443 61.2029 85.4764 60.8663 85.4814Z" fill="#BB0A08"/>
<path d="M72.1594 85.4814H64.761C64.5986 85.4825 64.4377 85.4504 64.2882 85.387C64.1387 85.3236 64.0037 85.2303 63.8916 85.1128C63.7795 84.9953 63.6926 84.8561 63.6363 84.7038C63.58 84.5514 63.5555 84.3892 63.5642 84.227L63.8842 76.8286C63.9036 76.4923 64.0498 76.1759 64.2933 75.9431C64.5367 75.7104 64.8594 75.5785 65.1962 75.5742H72.6042C72.7666 75.5736 72.9275 75.606 73.0769 75.6696C73.2264 75.7331 73.3614 75.8264 73.4736 75.9437C73.5859 76.0611 73.6731 76.2 73.7299 76.3522C73.7868 76.5043 73.812 76.6664 73.8042 76.8286L73.4682 84.227C73.4496 84.563 73.3041 84.8794 73.0612 85.1123C72.8182 85.3451 72.4959 85.4771 72.1594 85.4814Z" fill="#BB0A08"/>
<path d="M83.4521 85.4814H76.0569C75.8945 85.4821 75.7336 85.4496 75.5842 85.3861C75.4347 85.3226 75.2997 85.2293 75.1875 85.112C75.0752 84.9946 74.988 84.8556 74.9312 84.7035C74.8743 84.5514 74.849 84.3893 74.8569 84.227L75.1769 76.8286C75.1963 76.4924 75.3424 76.1759 75.5859 75.9432C75.8294 75.7104 76.152 75.5785 76.4889 75.5742H83.8841C84.0465 75.5731 84.2074 75.6053 84.3569 75.6687C84.5064 75.7321 84.6414 75.8254 84.7535 75.9429C84.8656 76.0604 84.9524 76.1996 85.0087 76.3519C85.0651 76.5042 85.0896 76.6665 85.0809 76.8286L84.7609 84.227C84.7415 84.5628 84.5958 84.8788 84.353 85.1115C84.1102 85.3442 83.7883 85.4763 83.4521 85.4814Z" fill="#BB0A08"/>
<path d="M94.7434 85.4814H87.3578C87.1953 85.4825 87.0342 85.4504 86.8845 85.387C86.7349 85.3237 86.5997 85.2304 86.4874 85.1129C86.375 84.9955 86.2878 84.8563 86.2311 84.704C86.1745 84.5517 86.1495 84.3893 86.1578 84.227L86.4778 76.8286C86.4964 76.4926 86.6419 76.1762 86.8849 75.9434C87.1278 75.7105 87.4501 75.5786 87.7866 75.5742H95.185C95.3473 75.5736 95.508 75.606 95.6573 75.6696C95.8066 75.7331 95.9413 75.8265 96.0533 75.9439C96.1654 76.0613 96.2523 76.2003 96.3087 76.3524C96.3652 76.5045 96.3901 76.6666 96.3818 76.8286L96.0618 84.227C96.0423 84.5644 95.8952 84.8817 95.6504 85.1147C95.4056 85.3476 95.0813 85.4787 94.7434 85.4814Z" fill="#BB0A08"/>
<path d="M106.034 85.4814H98.6358C98.4736 85.4821 98.3129 85.4496 98.1636 85.3861C98.0143 85.3225 97.8795 85.2292 97.7675 85.1118C97.6555 84.9944 97.5686 84.8554 97.5121 84.7033C97.4556 84.5511 97.4308 84.3891 97.4391 84.227L97.7591 76.8286C97.7785 76.4924 97.9246 76.1759 98.1681 75.9432C98.4116 75.7104 98.7342 75.5785 99.071 75.5742H106.466C106.629 75.5732 106.79 75.6053 106.939 75.6686C107.089 75.732 107.224 75.8253 107.337 75.9427C107.449 76.0602 107.536 76.1993 107.593 76.3517C107.65 76.504 107.675 76.6663 107.666 76.8286L107.346 84.227C107.326 84.5631 107.18 84.8791 106.936 85.1117C106.693 85.3443 106.371 85.4764 106.034 85.4814Z" fill="#BB0A08"/>
<path d="M117.324 85.4814H109.929C109.767 85.4825 109.606 85.4504 109.456 85.387C109.307 85.3236 109.172 85.2303 109.06 85.1128C108.947 84.9953 108.861 84.8561 108.804 84.7038C108.748 84.5514 108.723 84.3892 108.732 84.227L109.052 76.8286C109.072 76.4923 109.218 76.1759 109.461 75.9431C109.705 75.7104 110.027 75.5785 110.364 75.5742H117.759C117.922 75.5736 118.083 75.606 118.232 75.6696C118.382 75.7331 118.517 75.8264 118.629 75.9437C118.741 76.0611 118.828 76.2 118.885 76.3522C118.942 76.5043 118.967 76.6664 118.959 76.8286L118.623 84.227C118.605 84.5614 118.461 84.8764 118.22 85.1091C117.979 85.3417 117.659 85.4747 117.324 85.4814Z" fill="#BB0A08"/>
<g opacity="0.8">
<path d="M60.8702 85.4814H53.4718C53.3095 85.4821 53.1488 85.4496 52.9995 85.3861C52.8502 85.3225 52.7155 85.2292 52.6034 85.1118C52.4914 84.9944 52.4045 84.8554 52.3481 84.7032C52.2916 84.5511 52.2667 84.3891 52.275 84.227L52.595 76.8286C52.6144 76.4923 52.7606 76.1759 53.004 75.9431C53.2475 75.7104 53.5702 75.5785 53.907 75.5742H61.3054C61.4677 75.5736 61.6283 75.606 61.7776 75.6696C61.927 75.7331 62.0617 75.8265 62.1737 75.9439C62.2857 76.0613 62.3726 76.2003 62.4291 76.3524C62.4856 76.5045 62.5105 76.6666 62.5022 76.8286L62.1822 84.227C62.162 84.563 62.0156 84.879 61.7723 85.1117C61.529 85.3443 61.2068 85.4764 60.8702 85.4814Z" fill="#FAFAFA"/>
<path d="M72.1633 85.4814H64.7649C64.6025 85.4825 64.4416 85.4504 64.2921 85.387C64.1426 85.3236 64.0076 85.2303 63.8955 85.1128C63.7834 84.9953 63.6965 84.8561 63.6402 84.7038C63.5839 84.5514 63.5594 84.3892 63.5681 84.227L63.8881 76.8286C63.9075 76.4923 64.0537 76.1759 64.2972 75.9431C64.5406 75.7104 64.8633 75.5785 65.2001 75.5742H72.6081C72.7705 75.5736 72.9314 75.606 73.0808 75.6696C73.2303 75.7331 73.3653 75.8264 73.4775 75.9437C73.5898 76.0611 73.677 76.2 73.7338 76.3522C73.7907 76.5043 73.8159 76.6664 73.8081 76.8286L73.4721 84.227C73.4535 84.563 73.308 84.8794 73.0651 85.1123C72.8221 85.3451 72.4998 85.4771 72.1633 85.4814Z" fill="#FAFAFA"/>
<path d="M83.4521 85.4814H76.0569C75.8945 85.4821 75.7336 85.4496 75.5842 85.3861C75.4347 85.3226 75.2997 85.2293 75.1875 85.112C75.0752 84.9946 74.988 84.8556 74.9312 84.7035C74.8743 84.5514 74.849 84.3893 74.8569 84.227L75.1769 76.8286C75.1963 76.4924 75.3424 76.1759 75.5859 75.9432C75.8294 75.7104 76.152 75.5785 76.4889 75.5742H83.8841C84.0465 75.5731 84.2074 75.6053 84.3569 75.6687C84.5064 75.7321 84.6414 75.8254 84.7535 75.9429C84.8656 76.0604 84.9524 76.1996 85.0087 76.3519C85.0651 76.5042 85.0896 76.6665 85.0809 76.8286L84.7609 84.227C84.7415 84.5628 84.5958 84.8788 84.353 85.1115C84.1102 85.3442 83.7883 85.4763 83.4521 85.4814Z" fill="#FAFAFA"/>
<path d="M94.7473 85.4814H87.3617C87.1992 85.4825 87.0381 85.4504 86.8885 85.387C86.7388 85.3237 86.6036 85.2304 86.4913 85.1129C86.3789 84.9955 86.2917 84.8563 86.235 84.704C86.1784 84.5517 86.1534 84.3893 86.1617 84.227L86.4817 76.8286C86.5003 76.4926 86.6458 76.1762 86.8888 75.9434C87.1317 75.7105 87.454 75.5786 87.7905 75.5742H95.1889C95.3512 75.5736 95.5119 75.606 95.6612 75.6696C95.8105 75.7331 95.9452 75.8265 96.0573 75.9439C96.1693 76.0613 96.2562 76.2003 96.3126 76.3524C96.3691 76.5045 96.394 76.6666 96.3857 76.8286L96.0657 84.227C96.0462 84.5644 95.8992 84.8817 95.6543 85.1147C95.4095 85.3476 95.0852 85.4787 94.7473 85.4814Z" fill="#FAFAFA"/>
<path d="M106.038 85.4814H98.6398C98.4775 85.4821 98.3168 85.4496 98.1675 85.3861C98.0182 85.3225 97.8834 85.2292 97.7714 85.1118C97.6594 84.9944 97.5725 84.8554 97.516 84.7033C97.4595 84.5511 97.4347 84.3891 97.443 84.227L97.763 76.8286C97.7824 76.4924 97.9285 76.1759 98.172 75.9432C98.4155 75.7104 98.7381 75.5785 99.0749 75.5742H106.47C106.633 75.5732 106.794 75.6053 106.943 75.6686C107.093 75.732 107.228 75.8253 107.341 75.9427C107.453 76.0602 107.54 76.1993 107.597 76.3517C107.653 76.504 107.678 76.6663 107.67 76.8286L107.35 84.227C107.33 84.5631 107.184 84.8791 106.94 85.1117C106.697 85.3443 106.375 85.4764 106.038 85.4814Z" fill="#FAFAFA"/>
<path d="M117.328 85.4814H109.933C109.771 85.4825 109.61 85.4504 109.46 85.387C109.311 85.3236 109.176 85.2303 109.064 85.1128C108.951 84.9953 108.865 84.8561 108.808 84.7038C108.752 84.5514 108.727 84.3892 108.736 84.227L109.056 76.8286C109.076 76.4923 109.222 76.1759 109.465 75.9431C109.709 75.7104 110.031 75.5785 110.368 75.5742H117.763C117.926 75.5736 118.087 75.606 118.236 75.6696C118.385 75.7331 118.52 75.8264 118.633 75.9437C118.745 76.0611 118.832 76.2 118.889 76.3522C118.946 76.5043 118.971 76.6664 118.963 76.8286L118.627 84.227C118.609 84.5614 118.465 84.8764 118.224 85.1091C117.983 85.3417 117.663 85.4747 117.328 85.4814Z" fill="#FAFAFA"/>
</g>
<path d="M60.3507 96.9599H52.9523C52.79 96.9606 52.6293 96.9281 52.48 96.8646C52.3307 96.801 52.1959 96.7077 52.0839 96.5903C51.9719 96.4729 51.885 96.3339 51.8285 96.1818C51.772 96.0296 51.7472 95.8676 51.7555 95.7055L52.0755 88.3071C52.0956 87.9711 52.242 87.6551 52.4853 87.4225C52.7286 87.1899 53.0509 87.0578 53.3875 87.0527H60.7987C60.9609 87.0521 61.1216 87.0845 61.2709 87.1481C61.4202 87.2117 61.555 87.305 61.667 87.4224C61.779 87.5398 61.8659 87.6788 61.9224 87.8309C61.9789 87.983 62.0037 88.1451 61.9955 88.3071L61.6755 95.7055C61.6551 96.0437 61.5069 96.3616 61.2609 96.5945C61.0149 96.8275 60.6895 96.9581 60.3507 96.9599Z" fill="#BB0A08"/>
<path d="M71.6436 96.96H64.2452C64.083 96.9606 63.9223 96.9282 63.773 96.8646C63.6237 96.801 63.4889 96.7077 63.3769 96.5903C63.2649 96.4729 63.178 96.3339 63.1215 96.1818C63.065 96.0297 63.0402 95.8676 63.0484 95.7056L63.3684 88.3072C63.3878 87.9709 63.534 87.6545 63.7775 87.4217C64.0209 87.1889 64.3436 87.0571 64.6804 87.0528H72.0756C72.2394 87.0516 72.4017 87.0841 72.5525 87.1482C72.7032 87.2123 72.8392 87.3067 72.952 87.4255C73.0648 87.5443 73.152 87.6849 73.2082 87.8388C73.2644 87.9927 73.2885 88.1564 73.2788 88.32L72.9588 95.7056C72.9401 96.0427 72.7937 96.36 72.5494 96.593C72.3051 96.826 71.9812 96.9572 71.6436 96.96Z" fill="#BB0A08"/>
<path d="M82.9336 96.96H75.5384C75.376 96.9611 75.2151 96.9289 75.0655 96.8655C74.916 96.8021 74.7811 96.7088 74.669 96.5913C74.5569 96.4738 74.47 96.3346 74.4137 96.1823C74.3574 96.03 74.3328 95.8677 74.3416 95.7056L74.6616 88.3072C74.681 87.9709 74.8271 87.6544 75.0706 87.4217C75.3141 87.1889 75.6367 87.0571 75.9736 87.0528H83.3688C83.5312 87.0517 83.6921 87.0838 83.8416 87.1472C83.9911 87.2106 84.1261 87.3039 84.2382 87.4214C84.3503 87.5389 84.4371 87.6781 84.4935 87.8304C84.5498 87.9828 84.5743 88.145 84.5656 88.3072L84.2456 95.7056C84.2262 96.0418 84.08 96.3583 83.8365 96.5911C83.593 96.8238 83.2704 96.9557 82.9336 96.96Z" fill="#BB0A08"/>
<path d="M94.2255 96.9601H86.8303C86.6679 96.9607 86.5071 96.9283 86.3576 96.8648C86.2081 96.8013 86.0732 96.708 85.9609 96.5906C85.8486 96.4733 85.7614 96.3343 85.7046 96.1822C85.6478 96.0301 85.6225 95.8679 85.6303 95.7057L85.9503 88.3073C85.9689 87.9713 86.1144 87.6549 86.3574 87.4221C86.6003 87.1892 86.9226 87.0573 87.2591 87.0529H94.6575C94.8222 87.05 94.9858 87.0811 95.1379 87.1445C95.29 87.2078 95.4274 87.302 95.5413 87.421C95.6552 87.5401 95.7433 87.6814 95.7999 87.8362C95.8565 87.9909 95.8805 88.1557 95.8703 88.3201L95.5503 95.7185C95.5276 96.0547 95.3783 96.3698 95.1324 96.6002C94.8865 96.8307 94.5625 96.9593 94.2255 96.9601Z" fill="#BB0A08"/>
<path d="M105.519 96.9591H98.1202C97.958 96.9597 97.7973 96.9273 97.648 96.8637C97.4987 96.8002 97.3639 96.7068 97.2519 96.5894C97.1399 96.472 97.053 96.333 96.9965 96.1809C96.94 96.0288 96.9152 95.8667 96.9234 95.7047L97.2434 88.3063C97.2605 87.9674 97.406 87.6478 97.6503 87.4124C97.8946 87.177 98.2194 87.0435 98.5586 87.0391H105.957C106.119 87.0384 106.28 87.0709 106.429 87.1344C106.579 87.198 106.713 87.2913 106.825 87.4087C106.937 87.5261 107.024 87.6651 107.081 87.8173C107.137 87.9694 107.162 88.1314 107.154 88.2935L106.834 95.6919C106.817 96.0307 106.671 96.3503 106.427 96.5857C106.183 96.8211 105.858 96.9546 105.519 96.9591Z" fill="#BB0A08"/>
<path d="M116.799 96.9599H109.413C109.251 96.961 109.09 96.9289 108.941 96.8655C108.791 96.8021 108.656 96.7088 108.544 96.5913C108.432 96.4738 108.345 96.3346 108.289 96.1823C108.232 96.0299 108.208 95.8677 108.217 95.7055L108.537 88.3071C108.556 87.9709 108.702 87.6544 108.946 87.4216C109.189 87.1889 109.512 87.057 109.849 87.0527H117.244C117.406 87.0521 117.567 87.0846 117.716 87.1481C117.866 87.2116 118.001 87.3049 118.113 87.4222C118.225 87.5396 118.313 87.6786 118.369 87.8307C118.426 87.9828 118.452 88.1449 118.444 88.3071L118.108 95.7055C118.089 96.0415 117.944 96.3579 117.701 96.5908C117.458 96.8237 117.135 96.9556 116.799 96.9599Z" fill="#BB0A08"/>
<g opacity="0.8">
<path d="M60.3507 96.9619H52.9523C52.79 96.9625 52.6293 96.9301 52.48 96.8665C52.3307 96.803 52.1959 96.7096 52.0839 96.5922C51.9719 96.4748 51.885 96.3358 51.8285 96.1837C51.772 96.0316 51.7472 95.8695 51.7555 95.7075L52.0755 88.3091C52.0956 87.9731 52.242 87.6571 52.4853 87.4244C52.7286 87.1918 53.0509 87.0597 53.3875 87.0547H60.7987C60.9609 87.0541 61.1216 87.0865 61.2709 87.15C61.4202 87.2136 61.555 87.3069 61.667 87.4243C61.779 87.5417 61.8659 87.6808 61.9224 87.8329C61.9789 87.985 62.0037 88.147 61.9955 88.3091L61.6755 95.7075C61.6551 96.0457 61.5069 96.3635 61.2609 96.5965C61.0149 96.8294 60.6895 96.9601 60.3507 96.9619Z" fill="#FAFAFA"/>
<path d="M71.6436 96.9619H64.2452C64.083 96.9626 63.9223 96.9301 63.773 96.8666C63.6237 96.803 63.4889 96.7097 63.3769 96.5923C63.2649 96.4749 63.178 96.3359 63.1215 96.1837C63.065 96.0316 63.0402 95.8696 63.0484 95.7075L63.3684 88.3091C63.3878 87.9728 63.534 87.6564 63.7775 87.4236C64.0209 87.1908 64.3436 87.059 64.6804 87.0547H72.0756C72.2394 87.0536 72.4017 87.086 72.5525 87.1501C72.7032 87.2143 72.8392 87.3086 72.952 87.4274C73.0648 87.5462 73.152 87.6869 73.2082 87.8408C73.2644 87.9946 73.2885 88.1584 73.2788 88.3219L72.9588 95.7075C72.9401 96.0446 72.7937 96.3619 72.5494 96.5949C72.3051 96.828 71.9812 96.9592 71.6436 96.9619Z" fill="#FAFAFA"/>
<path d="M82.9336 96.9619H75.5384C75.376 96.963 75.2151 96.9309 75.0655 96.8675C74.916 96.8041 74.7811 96.7108 74.669 96.5933C74.5569 96.4758 74.47 96.3366 74.4137 96.1842C74.3574 96.0319 74.3328 95.8697 74.3416 95.7075L74.6616 88.3091C74.681 87.9728 74.8271 87.6564 75.0706 87.4236C75.3141 87.1908 75.6367 87.059 75.9736 87.0547H83.3688C83.5312 87.0536 83.6921 87.0857 83.8416 87.1491C83.9911 87.2125 84.1261 87.3058 84.2382 87.4233C84.3503 87.5408 84.4371 87.6801 84.4935 87.8324C84.5498 87.9847 84.5743 88.1469 84.5656 88.3091L84.2456 95.7075C84.2262 96.0438 84.08 96.3602 83.8365 96.593C83.593 96.8258 83.2704 96.9576 82.9336 96.9619Z" fill="#FAFAFA"/>
<path d="M94.2255 96.9601H86.8303C86.6679 96.9607 86.5071 96.9283 86.3576 96.8648C86.2081 96.8013 86.0732 96.708 85.9609 96.5906C85.8486 96.4733 85.7614 96.3343 85.7046 96.1822C85.6478 96.0301 85.6225 95.8679 85.6303 95.7057L85.9503 88.3073C85.9689 87.9713 86.1144 87.6549 86.3574 87.4221C86.6003 87.1892 86.9226 87.0573 87.2591 87.0529H94.6575C94.8222 87.05 94.9858 87.0811 95.1379 87.1445C95.29 87.2078 95.4274 87.302 95.5413 87.421C95.6552 87.5401 95.7433 87.6814 95.7999 87.8362C95.8565 87.9909 95.8805 88.1557 95.8703 88.3201L95.5503 95.7185C95.5276 96.0547 95.3783 96.3698 95.1324 96.6002C94.8865 96.8307 94.5625 96.9593 94.2255 96.9601Z" fill="#FAFAFA"/>
<path d="M105.519 96.961H98.1202C97.958 96.9617 97.7973 96.9292 97.648 96.8657C97.4987 96.8021 97.3639 96.7088 97.2519 96.5914C97.1399 96.474 97.053 96.335 96.9965 96.1828C96.94 96.0307 96.9152 95.8687 96.9234 95.7066L97.2434 88.3082C97.2605 87.9694 97.406 87.6498 97.6503 87.4144C97.8946 87.179 98.2194 87.0455 98.5586 87.041H105.957C106.119 87.0404 106.28 87.0728 106.429 87.1364C106.579 87.1999 106.713 87.2933 106.825 87.4107C106.937 87.5281 107.024 87.6671 107.081 87.8192C107.137 87.9713 107.162 88.1334 107.154 88.2954L106.834 95.6938C106.817 96.0327 106.671 96.3523 106.427 96.5877C106.183 96.8231 105.858 96.9566 105.519 96.961Z" fill="#FAFAFA"/>
<path d="M116.799 96.9619H109.413C109.251 96.963 109.09 96.9309 108.941 96.8675C108.791 96.8041 108.656 96.7108 108.544 96.5933C108.432 96.4757 108.345 96.3366 108.289 96.1842C108.232 96.0319 108.208 95.8697 108.217 95.7075L108.537 88.3091C108.556 87.9728 108.702 87.6564 108.946 87.4236C109.189 87.1908 109.512 87.059 109.849 87.0547H117.244C117.406 87.0541 117.567 87.0865 117.716 87.15C117.866 87.2135 118.001 87.3068 118.113 87.4242C118.225 87.5415 118.313 87.6805 118.369 87.8326C118.426 87.9848 118.452 88.1469 118.444 88.3091L118.108 95.7075C118.089 96.0435 117.944 96.3599 117.701 96.5928C117.458 96.8256 117.135 96.9575 116.799 96.9619Z" fill="#FAFAFA"/>
</g>
<path d="M59.8377 108.435H52.4329C52.2705 108.436 52.1096 108.404 51.9601 108.341C51.8106 108.277 51.6756 108.184 51.5635 108.067C51.4514 107.949 51.3645 107.81 51.3082 107.658C51.2519 107.505 51.2274 107.343 51.2361 107.181L51.5561 99.7857C51.5755 99.4494 51.7217 99.133 51.9651 98.9002C52.2086 98.6674 52.5313 98.5356 52.8681 98.5313H60.2665C60.4289 98.5302 60.5898 98.5623 60.7393 98.6257C60.8888 98.6891 61.0238 98.7824 61.1359 98.8999C61.248 99.0174 61.3349 99.1566 61.3912 99.3089C61.4475 99.4613 61.472 99.6235 61.4633 99.7857L61.1433 107.181C61.1247 107.516 60.9797 107.832 60.7374 108.065C60.4951 108.298 60.1736 108.43 59.8377 108.435Z" fill="#BB0A08"/>
<path d="M71.1243 108.435H63.7259C63.5635 108.436 63.4026 108.404 63.253 108.341C63.1035 108.277 62.9686 108.184 62.8565 108.067C62.7444 107.949 62.6575 107.81 62.6012 107.658C62.5449 107.505 62.5203 107.343 62.5291 107.181L62.8491 99.7857C62.8677 99.4491 63.0137 99.1323 63.2573 98.8994C63.5009 98.6664 63.824 98.5348 64.1611 98.5313H71.5563C71.7189 98.5298 71.8802 98.5616 72.0301 98.6248C72.18 98.688 72.3153 98.7812 72.4278 98.8988C72.5402 99.0163 72.6274 99.1557 72.6839 99.3082C72.7404 99.4608 72.765 99.6233 72.7563 99.7857L72.4363 107.181C72.4184 107.518 72.2726 107.835 72.0289 108.068C71.7851 108.301 71.4615 108.433 71.1243 108.435Z" fill="#BB0A08"/>
<path d="M82.414 108.435H75.0188C74.8564 108.436 74.6955 108.404 74.546 108.341C74.3965 108.277 74.2615 108.184 74.1494 108.067C74.0373 107.949 73.9504 107.81 73.8941 107.658C73.8378 107.505 73.8133 107.343 73.822 107.181L74.142 99.7857C74.1607 99.4491 74.3066 99.1323 74.5503 98.8993C74.7939 98.6664 75.117 98.5348 75.454 98.5313H82.878C83.0406 98.5302 83.2016 98.5623 83.3513 98.6257C83.501 98.689 83.6361 98.7823 83.7485 98.8998C83.8608 99.0172 83.948 99.1564 84.0047 99.3087C84.0614 99.461 84.0863 99.6233 84.078 99.7857L83.742 107.181C83.7232 107.52 83.575 107.839 83.328 108.073C83.0809 108.306 82.7539 108.436 82.414 108.435Z" fill="#BB0A08"/>
<path d="M93.7061 108.435H86.3109C86.1484 108.436 85.9873 108.404 85.8377 108.341C85.688 108.278 85.5528 108.184 85.4405 108.067C85.3281 107.949 85.2409 107.81 85.1843 107.658C85.1276 107.506 85.1026 107.343 85.1109 107.181L85.4309 99.7857C85.4488 99.4494 85.5941 99.1326 85.8372 98.8996C86.0803 98.6666 86.403 98.5349 86.7397 98.5313H94.1381C94.3005 98.5302 94.4614 98.5623 94.6109 98.6257C94.7605 98.6891 94.8954 98.7824 95.0075 98.8999C95.1196 99.0174 95.2065 99.1566 95.2628 99.3089C95.3191 99.4613 95.3437 99.6235 95.3349 99.7857L95.0149 107.181C94.9963 107.517 94.8508 107.833 94.6079 108.066C94.3649 108.299 94.0426 108.431 93.7061 108.435Z" fill="#BB0A08"/>
<path d="M104.999 108.435H97.597C97.4346 108.436 97.2737 108.404 97.1241 108.341C96.9746 108.277 96.8397 108.184 96.7276 108.067C96.6154 107.949 96.5286 107.81 96.4723 107.658C96.416 107.505 96.3914 107.343 96.4002 107.181L96.7202 99.7857C96.7396 99.4494 96.8857 99.133 97.1292 98.9002C97.3727 98.6674 97.6953 98.5356 98.0322 98.5313H105.431C105.593 98.5302 105.754 98.5623 105.903 98.6257C106.053 98.6891 106.188 98.7824 106.3 98.8999C106.412 99.0174 106.499 99.1566 106.555 99.3089C106.612 99.4613 106.636 99.6235 106.627 99.7857L106.307 107.181C106.288 107.517 106.142 107.833 105.899 108.065C105.657 108.298 105.335 108.43 104.999 108.435Z" fill="#BB0A08"/>
<path d="M116.292 108.435H108.894C108.731 108.436 108.571 108.404 108.421 108.341C108.272 108.277 108.137 108.184 108.024 108.067C107.912 107.949 107.825 107.81 107.769 107.658C107.713 107.505 107.688 107.343 107.697 107.181L108.017 99.7857C108.036 99.4491 108.182 99.1323 108.425 98.8993C108.669 98.6664 108.992 98.5348 109.329 98.5313H116.724C116.887 98.5302 117.048 98.5623 117.197 98.6257C117.347 98.689 117.482 98.7823 117.595 98.8998C117.707 99.0172 117.794 99.1564 117.851 99.3087C117.908 99.461 117.933 99.6233 117.924 99.7857L117.588 107.181C117.571 107.515 117.427 107.83 117.187 108.063C116.946 108.295 116.627 108.428 116.292 108.435Z" fill="#BB0A08"/>
<g opacity="0.8">
<path d="M59.8377 108.435H52.4329C52.2705 108.436 52.1096 108.404 51.9601 108.341C51.8106 108.277 51.6756 108.184 51.5635 108.067C51.4514 107.949 51.3645 107.81 51.3082 107.658C51.2519 107.505 51.2274 107.343 51.2361 107.181L51.5561 99.7857C51.5755 99.4494 51.7217 99.133 51.9651 98.9002C52.2086 98.6674 52.5313 98.5356 52.8681 98.5313H60.2665C60.4289 98.5302 60.5898 98.5623 60.7393 98.6257C60.8888 98.6891 61.0238 98.7824 61.1359 98.8999C61.248 99.0174 61.3349 99.1566 61.3912 99.3089C61.4475 99.4613 61.472 99.6235 61.4633 99.7857L61.1433 107.181C61.1247 107.516 60.9797 107.832 60.7374 108.065C60.4951 108.298 60.1736 108.43 59.8377 108.435Z" fill="#FAFAFA"/>
<path d="M71.1243 108.435H63.7259C63.5635 108.436 63.4026 108.404 63.253 108.341C63.1035 108.277 62.9686 108.184 62.8565 108.067C62.7444 107.949 62.6575 107.81 62.6012 107.658C62.5449 107.505 62.5203 107.343 62.5291 107.181L62.8491 99.7857C62.8677 99.4491 63.0137 99.1323 63.2573 98.8994C63.5009 98.6664 63.824 98.5348 64.1611 98.5313H71.5563C71.7189 98.5298 71.8802 98.5616 72.0301 98.6248C72.18 98.688 72.3153 98.7812 72.4278 98.8988C72.5402 99.0163 72.6274 99.1557 72.6839 99.3082C72.7404 99.4608 72.765 99.6233 72.7563 99.7857L72.4363 107.181C72.4184 107.518 72.2726 107.835 72.0289 108.068C71.7851 108.301 71.4615 108.433 71.1243 108.435Z" fill="#FAFAFA"/>
<path d="M82.414 108.435H75.0188C74.8564 108.436 74.6955 108.404 74.546 108.341C74.3965 108.277 74.2615 108.184 74.1494 108.067C74.0373 107.949 73.9504 107.81 73.8941 107.658C73.8378 107.505 73.8133 107.343 73.822 107.181L74.142 99.7857C74.1607 99.4491 74.3066 99.1323 74.5503 98.8993C74.7939 98.6664 75.117 98.5348 75.454 98.5313H82.878C83.0406 98.5302 83.2016 98.5623 83.3513 98.6257C83.501 98.689 83.6361 98.7823 83.7485 98.8998C83.8608 99.0172 83.948 99.1564 84.0047 99.3087C84.0614 99.461 84.0863 99.6233 84.078 99.7857L83.742 107.181C83.7232 107.52 83.575 107.839 83.328 108.073C83.0809 108.306 82.7539 108.436 82.414 108.435Z" fill="#FAFAFA"/>
<path d="M93.7061 108.435H86.3109C86.1484 108.436 85.9873 108.404 85.8377 108.341C85.688 108.278 85.5528 108.184 85.4405 108.067C85.3281 107.949 85.2409 107.81 85.1843 107.658C85.1276 107.506 85.1026 107.343 85.1109 107.181L85.4309 99.7857C85.4488 99.4494 85.5941 99.1326 85.8372 98.8996C86.0803 98.6666 86.403 98.5349 86.7397 98.5313H94.1381C94.3005 98.5302 94.4614 98.5623 94.6109 98.6257C94.7605 98.6891 94.8954 98.7824 95.0075 98.8999C95.1196 99.0174 95.2065 99.1566 95.2628 99.3089C95.3191 99.4613 95.3437 99.6235 95.3349 99.7857L95.0149 107.181C94.9963 107.517 94.8508 107.833 94.6079 108.066C94.3649 108.299 94.0426 108.431 93.7061 108.435Z" fill="#FAFAFA"/>
<path d="M104.999 108.435H97.597C97.4346 108.436 97.2737 108.404 97.1241 108.341C96.9746 108.277 96.8397 108.184 96.7276 108.067C96.6154 107.949 96.5286 107.81 96.4723 107.658C96.416 107.505 96.3914 107.343 96.4002 107.181L96.7202 99.7857C96.7396 99.4494 96.8857 99.133 97.1292 98.9002C97.3727 98.6674 97.6953 98.5356 98.0322 98.5313H105.431C105.593 98.5302 105.754 98.5623 105.903 98.6257C106.053 98.6891 106.188 98.7824 106.3 98.8999C106.412 99.0174 106.499 99.1566 106.555 99.3089C106.612 99.4613 106.636 99.6235 106.627 99.7857L106.307 107.181C106.288 107.517 106.142 107.833 105.899 108.065C105.657 108.298 105.335 108.43 104.999 108.435Z" fill="#FAFAFA"/>
<path d="M116.292 108.435H108.894C108.731 108.436 108.571 108.404 108.421 108.341C108.272 108.277 108.137 108.184 108.024 108.067C107.912 107.949 107.825 107.81 107.769 107.658C107.713 107.505 107.688 107.343 107.697 107.181L108.017 99.7857C108.036 99.4491 108.182 99.1323 108.425 98.8993C108.669 98.6664 108.992 98.5348 109.329 98.5313H116.724C116.887 98.5302 117.048 98.5623 117.197 98.6257C117.347 98.689 117.482 98.7823 117.595 98.8998C117.707 99.0172 117.794 99.1564 117.851 99.3087C117.908 99.461 117.933 99.6233 117.924 99.7857L117.588 107.181C117.571 107.515 117.427 107.83 117.187 108.063C116.946 108.295 116.627 108.428 116.292 108.435Z" fill="#FAFAFA"/>
</g>
<path d="M57.7429 69.5797C55.0165 69.5797 52.8789 66.4085 52.8789 62.3605C52.8789 58.3125 55.0165 55.1445 57.7429 55.1445C60.4693 55.1445 62.6101 58.3157 62.6101 62.3605C62.5977 62.5503 62.5136 62.7281 62.3748 62.8581C62.236 62.9881 62.053 63.0604 61.8629 63.0604C61.6728 63.0604 61.4898 62.9881 61.351 62.8581C61.2123 62.7281 61.1281 62.5503 61.1157 62.3605C61.1157 59.2597 59.5733 56.6357 57.7429 56.6357C55.9125 56.6357 54.3701 59.2597 54.3701 62.3605C54.3701 65.4613 55.9157 68.0853 57.7429 68.0853C57.8451 68.0786 57.9477 68.093 58.0441 68.1275C58.1406 68.162 58.2289 68.216 58.3037 68.286C58.3785 68.3561 58.4381 68.4407 58.4789 68.5347C58.5196 68.6287 58.5406 68.7301 58.5406 68.8325C58.5406 68.935 58.5196 69.0364 58.4789 69.1304C58.4381 69.2244 58.3785 69.309 58.3037 69.379C58.2289 69.4491 58.1406 69.503 58.0441 69.5375C57.9477 69.5721 57.8451 69.5864 57.7429 69.5797Z" fill="#BB0A08"/>
<path d="M69.0359 69.5797C66.3095 69.5797 64.1719 66.4085 64.1719 62.3605C64.1719 58.3125 66.3095 55.1445 69.0359 55.1445C71.7623 55.1445 73.9191 58.3157 73.9191 62.3605C73.9067 62.5503 73.8225 62.7281 73.6838 62.8581C73.545 62.9881 73.362 63.0604 73.1719 63.0604C72.9817 63.0604 72.7987 62.9881 72.66 62.8581C72.5212 62.7281 72.4371 62.5503 72.4247 62.3605C72.4247 59.2597 70.8823 56.6357 69.0519 56.6357C67.2215 56.6357 65.6791 59.2597 65.6791 62.3605C65.6791 65.4613 67.2247 68.0853 69.0519 68.0853C69.2416 68.0978 69.4195 68.1819 69.5495 68.3206C69.6794 68.4594 69.7518 68.6424 69.7518 68.8325C69.7518 69.0227 69.6794 69.2057 69.5495 69.3444C69.4195 69.4832 69.2416 69.5673 69.0519 69.5797H69.0359Z" fill="#BB0A08"/>
<path d="M80.3164 69.5797C77.5868 69.5797 75.4492 66.4085 75.4492 62.3605C75.4492 58.3125 77.5868 55.1445 80.3164 55.1445C83.046 55.1445 85.1804 58.3157 85.1804 62.3605C85.1804 62.5583 85.1019 62.7479 84.962 62.8877C84.8222 63.0276 84.6326 63.1061 84.4348 63.1061C84.2371 63.1061 84.0474 63.0276 83.9076 62.8877C83.7678 62.7479 83.6892 62.5583 83.6892 62.3605C83.6892 59.2597 82.1436 56.6357 80.3164 56.6357C78.4892 56.6357 76.9436 59.2597 76.9436 62.3605C76.9436 65.4613 78.4892 68.0853 80.3164 68.0853C80.5061 68.0978 80.684 68.1819 80.814 68.3206C80.944 68.4594 81.0163 68.6424 81.0163 68.8325C81.0163 69.0227 80.944 69.2057 80.814 69.3444C80.684 69.4832 80.5061 69.5673 80.3164 69.5797Z" fill="#BB0A08"/>
<path d="M91.6211 69.5797C88.8915 69.5797 86.7539 66.4085 86.7539 62.3605C86.7539 58.3125 88.8915 55.1445 91.6211 55.1445C94.3507 55.1445 96.4851 58.3157 96.4851 62.3605C96.4851 62.5583 96.4066 62.7479 96.2667 62.8877C96.1269 63.0276 95.9373 63.1061 95.7395 63.1061C95.5418 63.1061 95.3521 63.0276 95.2123 62.8877C95.0725 62.7479 94.9939 62.5583 94.9939 62.3605C94.9939 59.2597 93.4483 56.6357 91.6211 56.6357C89.7939 56.6357 88.2483 59.2597 88.2483 62.3605C88.2483 65.4613 89.7907 68.0853 91.6211 68.0853C91.8108 68.0978 91.9887 68.1819 92.1187 68.3206C92.2487 68.4594 92.321 68.6424 92.321 68.8325C92.321 69.0227 92.2487 69.2057 92.1187 69.3444C91.9887 69.4832 91.8108 69.5673 91.6211 69.5797Z" fill="#BB0A08"/>
<path d="M102.911 69.5797C100.184 69.5797 98.0469 66.4085 98.0469 62.3605C98.0469 58.3125 100.184 55.1445 102.911 55.1445C105.637 55.1445 107.778 58.3157 107.778 62.3605C107.766 62.5503 107.682 62.7281 107.543 62.8581C107.404 62.9881 107.221 63.0604 107.031 63.0604C106.841 63.0604 106.658 62.9881 106.519 62.8581C106.38 62.7281 106.296 62.5503 106.284 62.3605C106.284 59.2597 104.741 56.6357 102.911 56.6357C101.08 56.6357 99.5381 59.2597 99.5381 62.3605C99.5381 65.4613 101.084 68.0853 102.911 68.0853C103.013 68.0786 103.116 68.093 103.212 68.1275C103.309 68.162 103.397 68.216 103.472 68.286C103.546 68.3561 103.606 68.4407 103.647 68.5347C103.688 68.6287 103.709 68.7301 103.709 68.8325C103.709 68.935 103.688 69.0364 103.647 69.1304C103.606 69.2244 103.546 69.309 103.472 69.379C103.397 69.4491 103.309 69.503 103.212 69.5375C103.116 69.5721 103.013 69.5864 102.911 69.5797Z" fill="#BB0A08"/>
<path d="M114.204 69.5797C111.477 69.5797 109.34 66.4085 109.34 62.3605C109.34 58.3125 111.477 55.1445 114.204 55.1445C116.93 55.1445 119.071 58.3157 119.071 62.3605C119.059 62.5503 118.974 62.7281 118.836 62.8581C118.697 62.9881 118.514 63.0604 118.324 63.0604C118.134 63.0604 117.951 62.9881 117.812 62.8581C117.673 62.7281 117.589 62.5503 117.577 62.3605C117.577 59.2597 116.031 56.6357 114.204 56.6357C112.377 56.6357 110.831 59.2597 110.831 62.3605C110.831 65.4613 112.377 68.0853 114.204 68.0853C114.394 68.0978 114.571 68.1819 114.701 68.3206C114.831 68.4594 114.904 68.6424 114.904 68.8325C114.904 69.0227 114.831 69.2057 114.701 69.3444C114.571 69.4832 114.394 69.5673 114.204 69.5797Z" fill="#BB0A08"/>
<g opacity="0.3">
<path d="M57.7429 69.5797C55.0165 69.5797 52.8789 66.4085 52.8789 62.3605C52.8789 58.3125 55.0165 55.1445 57.7429 55.1445C60.4693 55.1445 62.6101 58.3157 62.6101 62.3605C62.5977 62.5503 62.5136 62.7281 62.3748 62.8581C62.236 62.9881 62.053 63.0604 61.8629 63.0604C61.6728 63.0604 61.4898 62.9881 61.351 62.8581C61.2123 62.7281 61.1281 62.5503 61.1157 62.3605C61.1157 59.2597 59.5733 56.6357 57.7429 56.6357C55.9125 56.6357 54.3701 59.2597 54.3701 62.3605C54.3701 65.4613 55.9157 68.0853 57.7429 68.0853C57.8451 68.0786 57.9477 68.093 58.0441 68.1275C58.1406 68.162 58.2289 68.216 58.3037 68.286C58.3785 68.3561 58.4381 68.4407 58.4789 68.5347C58.5196 68.6287 58.5406 68.7301 58.5406 68.8325C58.5406 68.935 58.5196 69.0364 58.4789 69.1304C58.4381 69.2244 58.3785 69.309 58.3037 69.379C58.2289 69.4491 58.1406 69.503 58.0441 69.5375C57.9477 69.5721 57.8451 69.5864 57.7429 69.5797Z" fill="black"/>
<path d="M69.0359 69.5797C66.3095 69.5797 64.1719 66.4085 64.1719 62.3605C64.1719 58.3125 66.3095 55.1445 69.0359 55.1445C71.7623 55.1445 73.9191 58.3157 73.9191 62.3605C73.9067 62.5503 73.8225 62.7281 73.6838 62.8581C73.545 62.9881 73.362 63.0604 73.1719 63.0604C72.9817 63.0604 72.7987 62.9881 72.66 62.8581C72.5212 62.7281 72.4371 62.5503 72.4247 62.3605C72.4247 59.2597 70.8823 56.6357 69.0519 56.6357C67.2215 56.6357 65.6791 59.2597 65.6791 62.3605C65.6791 65.4613 67.2247 68.0853 69.0519 68.0853C69.2416 68.0978 69.4195 68.1819 69.5495 68.3206C69.6794 68.4594 69.7518 68.6424 69.7518 68.8325C69.7518 69.0227 69.6794 69.2057 69.5495 69.3444C69.4195 69.4832 69.2416 69.5673 69.0519 69.5797H69.0359Z" fill="black"/>
<path d="M80.3203 69.5797C77.5907 69.5797 75.4531 66.4085 75.4531 62.3605C75.4531 58.3125 77.5907 55.1445 80.3203 55.1445C83.0499 55.1445 85.1843 58.3157 85.1843 62.3605C85.1843 62.5583 85.1058 62.7479 84.9659 62.8877C84.8261 63.0276 84.6365 63.1061 84.4387 63.1061C84.241 63.1061 84.0513 63.0276 83.9115 62.8877C83.7717 62.7479 83.6931 62.5583 83.6931 62.3605C83.6931 59.2597 82.1475 56.6357 80.3203 56.6357C78.4931 56.6357 76.9475 59.2597 76.9475 62.3605C76.9475 65.4613 78.4931 68.0853 80.3203 68.0853C80.51 68.0978 80.6879 68.1819 80.8179 68.3206C80.9479 68.4594 81.0202 68.6424 81.0202 68.8325C81.0202 69.0227 80.9479 69.2057 80.8179 69.3444C80.6879 69.4832 80.51 69.5673 80.3203 69.5797Z" fill="black"/>
<path d="M91.6211 69.5797C88.8915 69.5797 86.7539 66.4085 86.7539 62.3605C86.7539 58.3125 88.8915 55.1445 91.6211 55.1445C94.3507 55.1445 96.4851 58.3157 96.4851 62.3605C96.4851 62.5583 96.4066 62.7479 96.2667 62.8877C96.1269 63.0276 95.9373 63.1061 95.7395 63.1061C95.5418 63.1061 95.3521 63.0276 95.2123 62.8877C95.0725 62.7479 94.9939 62.5583 94.9939 62.3605C94.9939 59.2597 93.4483 56.6357 91.6211 56.6357C89.7939 56.6357 88.2483 59.2597 88.2483 62.3605C88.2483 65.4613 89.7907 68.0853 91.6211 68.0853C91.8108 68.0978 91.9887 68.1819 92.1187 68.3206C92.2487 68.4594 92.321 68.6424 92.321 68.8325C92.321 69.0227 92.2487 69.2057 92.1187 69.3444C91.9887 69.4832 91.8108 69.5673 91.6211 69.5797Z" fill="black"/>
<path d="M102.911 69.5797C100.184 69.5797 98.0469 66.4085 98.0469 62.3605C98.0469 58.3125 100.184 55.1445 102.911 55.1445C105.637 55.1445 107.778 58.3157 107.778 62.3605C107.766 62.5503 107.682 62.7281 107.543 62.8581C107.404 62.9881 107.221 63.0604 107.031 63.0604C106.841 63.0604 106.658 62.9881 106.519 62.8581C106.38 62.7281 106.296 62.5503 106.284 62.3605C106.284 59.2597 104.741 56.6357 102.911 56.6357C101.08 56.6357 99.5381 59.2597 99.5381 62.3605C99.5381 65.4613 101.084 68.0853 102.911 68.0853C103.013 68.0786 103.116 68.093 103.212 68.1275C103.309 68.162 103.397 68.216 103.472 68.286C103.546 68.3561 103.606 68.4407 103.647 68.5347C103.688 68.6287 103.709 68.7301 103.709 68.8325C103.709 68.935 103.688 69.0364 103.647 69.1304C103.606 69.2244 103.546 69.309 103.472 69.379C103.397 69.4491 103.309 69.503 103.212 69.5375C103.116 69.5721 103.013 69.5864 102.911 69.5797Z" fill="black"/>
<path d="M114.204 69.5797C111.477 69.5797 109.34 66.4085 109.34 62.3605C109.34 58.3125 111.477 55.1445 114.204 55.1445C116.93 55.1445 119.071 58.3157 119.071 62.3605C119.059 62.5503 118.974 62.7281 118.836 62.8581C118.697 62.9881 118.514 63.0604 118.324 63.0604C118.134 63.0604 117.951 62.9881 117.812 62.8581C117.673 62.7281 117.589 62.5503 117.577 62.3605C117.577 59.2597 116.031 56.6357 114.204 56.6357C112.377 56.6357 110.831 59.2597 110.831 62.3605C110.831 65.4613 112.377 68.0853 114.204 68.0853C114.394 68.0978 114.571 68.1819 114.701 68.3206C114.831 68.4594 114.904 68.6424 114.904 68.8325C114.904 69.0227 114.831 69.2057 114.701 69.3444C114.571 69.4832 114.394 69.5673 114.204 69.5797Z" fill="black"/>
</g>
<path d="M92.3769 85.8951C89.7657 85.3767 86.8345 85.9815 85.7881 88.7335C84.9465 90.9479 86.0249 93.3479 88.3481 93.9335C90.3961 94.4487 93.9289 93.8183 94.6585 91.4567C95.4937 88.7559 92.0985 87.8791 90.1945 87.7191C89.6217 87.6711 89.6249 88.5671 90.1945 88.6151C91.0617 88.6887 92.0537 88.7367 92.8217 89.2135C94.4217 90.2151 93.7625 91.8215 92.3993 92.5895C91.0361 93.3575 88.9465 93.5495 87.5993 92.6983C86.1273 91.7607 86.0793 89.6999 86.9593 88.3559C88.1145 86.5799 90.2233 86.3815 92.1241 86.7559C92.6873 86.8679 92.9273 86.0039 92.3609 85.8919L92.3769 85.8951Z" fill="#BB0A08"/>
<path opacity="0.1" d="M92.3769 85.8951C89.7657 85.3767 86.8345 85.9815 85.7881 88.7335C84.9465 90.9479 86.0249 93.3479 88.3481 93.9335C90.3961 94.4487 93.9289 93.8183 94.6585 91.4567C95.4937 88.7559 92.0985 87.8791 90.1945 87.7191C89.6217 87.6711 89.6249 88.5671 90.1945 88.6151C91.0617 88.6887 92.0537 88.7367 92.8217 89.2135C94.4217 90.2151 93.7625 91.8215 92.3993 92.5895C91.0361 93.3575 88.9465 93.5495 87.5993 92.6983C86.1273 91.7607 86.0793 89.6999 86.9593 88.3559C88.1145 86.5799 90.2233 86.3815 92.1241 86.7559C92.6873 86.8679 92.9273 86.0039 92.3609 85.8919L92.3769 85.8951Z" fill="#FAFAFA"/>
<path d="M63.566 75.5873C66.0632 78.8978 68.8473 81.9817 71.886 84.8033C72.3084 85.1969 72.9452 84.5633 72.526 84.1633C69.5393 81.3974 66.8014 78.3746 64.3436 75.1297C64.0012 74.6753 63.2236 75.1297 63.5724 75.5809L63.566 75.5873Z" fill="#BB0A08"/>
<path d="M64.4915 84.4278C66.3795 81.071 69.6851 78.207 72.8115 76.015C73.2787 75.695 72.8339 74.9078 72.3603 75.2406C69.1091 77.5254 65.6915 80.4758 63.7203 83.9734C63.6662 84.0753 63.6535 84.1941 63.6848 84.3052C63.7162 84.4162 63.7891 84.5108 63.8885 84.5694C63.9879 84.628 64.1061 84.6459 64.2184 84.6195C64.3307 84.5932 64.4285 84.5245 64.4915 84.4278Z" fill="#BB0A08"/>
<g opacity="0.2">
<path d="M63.5621 75.5873C66.0593 78.8978 68.8434 81.9817 71.8821 84.8033C72.3045 85.1969 72.9413 84.5633 72.5221 84.1633C69.5354 81.3974 66.7974 78.3746 64.3397 75.1297C63.9973 74.6753 63.2197 75.1297 63.5685 75.5809L63.5621 75.5873Z" fill="black"/>
<path d="M64.4875 84.4297C66.3755 81.0729 69.6811 78.2089 72.8075 76.0169C73.2747 75.6969 72.83 74.9097 72.3564 75.2425C69.1052 77.5273 65.6876 80.4777 63.7164 83.9753C63.6623 84.0772 63.6496 84.1961 63.6809 84.3071C63.7123 84.4181 63.7852 84.5128 63.8846 84.5714C63.984 84.6299 64.1022 84.6479 64.2145 84.6215C64.3268 84.5951 64.4246 84.5264 64.4875 84.4297Z" fill="black"/>
</g>
<path d="M99.1563 78.4514H104.996C105.108 78.4419 105.212 78.3908 105.288 78.3081C105.364 78.2254 105.406 78.1173 105.406 78.005C105.406 77.8927 105.364 77.7846 105.288 77.7019C105.212 77.6192 105.108 77.5681 104.996 77.5586H99.1563C99.0444 77.5681 98.9402 77.6192 98.8642 77.7019C98.7882 77.7846 98.7461 77.8927 98.7461 78.005C98.7461 78.1173 98.7882 78.2254 98.8642 78.3081C98.9402 78.3908 99.0444 78.4419 99.1563 78.4514Z" fill="#BB0A08"/>
<path d="M99.0886 80.1108H102.474C102.593 80.1108 102.707 80.0636 102.791 79.9796C102.875 79.8956 102.922 79.7817 102.922 79.6629C102.922 79.544 102.875 79.4301 102.791 79.3461C102.707 79.262 102.593 79.2148 102.474 79.2148H99.0886C98.9698 79.2148 98.8559 79.262 98.7718 79.3461C98.6878 79.4301 98.6406 79.544 98.6406 79.6629C98.6406 79.7817 98.6878 79.8956 98.7718 79.9796C98.8559 80.0636 98.9698 80.1108 99.0886 80.1108Z" fill="#BB0A08"/>
<g opacity="0.1">
<path d="M99.1563 78.4514H104.996C105.108 78.4419 105.212 78.3908 105.288 78.3081C105.364 78.2254 105.406 78.1173 105.406 78.005C105.406 77.8927 105.364 77.7846 105.288 77.7019C105.212 77.6192 105.108 77.5681 104.996 77.5586H99.1563C99.0444 77.5681 98.9402 77.6192 98.8642 77.7019C98.7882 77.7846 98.7461 77.8927 98.7461 78.005C98.7461 78.1173 98.7882 78.2254 98.8642 78.3081C98.9402 78.3908 99.0444 78.4419 99.1563 78.4514Z" fill="#FAFAFA"/>
<path d="M99.0886 80.1128H102.474C102.593 80.1128 102.707 80.0656 102.791 79.9816C102.875 79.8976 102.922 79.7836 102.922 79.6648C102.922 79.546 102.875 79.432 102.791 79.348C102.707 79.264 102.593 79.2168 102.474 79.2168H99.0886C98.9698 79.2168 98.8559 79.264 98.7718 79.348C98.6878 79.432 98.6406 79.546 98.6406 79.6648C98.6406 79.7836 98.6878 79.8976 98.7718 79.9816C98.8559 80.0656 98.9698 80.1128 99.0886 80.1128Z" fill="#FAFAFA"/>
</g>
<path d="M64.1785 101.376H69.1865C69.3053 101.376 69.4192 101.329 69.5033 101.245C69.5873 101.161 69.6345 101.047 69.6345 100.928C69.6345 100.81 69.5873 100.696 69.5033 100.612C69.4192 100.528 69.3053 100.48 69.1865 100.48H64.1785C64.0596 100.48 63.9457 100.528 63.8617 100.612C63.7777 100.696 63.7305 100.81 63.7305 100.928C63.7305 101.047 63.7777 101.161 63.8617 101.245C63.9457 101.329 64.0596 101.376 64.1785 101.376Z" fill="#BB0A08"/>
<path d="M63.9988 103.298H70.4948C70.6136 103.298 70.7275 103.251 70.8116 103.167C70.8956 103.083 70.9428 102.969 70.9428 102.85C70.9428 102.732 70.8956 102.618 70.8116 102.534C70.7275 102.45 70.6136 102.402 70.4948 102.402H63.9988C63.88 102.402 63.766 102.45 63.682 102.534C63.598 102.618 63.5508 102.732 63.5508 102.85C63.5508 102.969 63.598 103.083 63.682 103.167C63.766 103.251 63.88 103.298 63.9988 103.298Z" fill="#BB0A08"/>
<path d="M63.9988 105.279H67.2468C67.3656 105.279 67.4795 105.232 67.5636 105.148C67.6476 105.064 67.6948 104.95 67.6948 104.831C67.6948 104.712 67.6476 104.598 67.5636 104.514C67.4795 104.43 67.3656 104.383 67.2468 104.383H63.9988C63.88 104.383 63.766 104.43 63.682 104.514C63.598 104.598 63.5508 104.712 63.5508 104.831C63.5508 104.95 63.598 105.064 63.682 105.148C63.766 105.232 63.88 105.279 63.9988 105.279Z" fill="#BB0A08"/>
<g opacity="0.1">
<path d="M64.1785 101.375H69.1865C69.3053 101.375 69.4192 101.327 69.5033 101.243C69.5873 101.159 69.6345 101.045 69.6345 100.927C69.6345 100.808 69.5873 100.694 69.5033 100.61C69.4192 100.526 69.3053 100.479 69.1865 100.479H64.1785C64.0596 100.479 63.9457 100.526 63.8617 100.61C63.7777 100.694 63.7305 100.808 63.7305 100.927C63.7305 101.045 63.7777 101.159 63.8617 101.243C63.9457 101.327 64.0596 101.375 64.1785 101.375Z" fill="#FAFAFA"/>
<path d="M63.9988 103.298H70.4948C70.6136 103.298 70.7275 103.251 70.8116 103.167C70.8956 103.083 70.9428 102.969 70.9428 102.85C70.9428 102.732 70.8956 102.618 70.8116 102.534C70.7275 102.45 70.6136 102.402 70.4948 102.402H63.9988C63.88 102.402 63.766 102.45 63.682 102.534C63.598 102.618 63.5508 102.732 63.5508 102.85C63.5508 102.969 63.598 103.083 63.682 103.167C63.766 103.251 63.88 103.298 63.9988 103.298Z" fill="#FAFAFA"/>
<path d="M63.9988 105.279H67.2468C67.3656 105.279 67.4795 105.232 67.5636 105.148C67.6476 105.064 67.6948 104.95 67.6948 104.831C67.6948 104.712 67.6476 104.598 67.5636 104.514C67.4795 104.43 67.3656 104.383 67.2468 104.383H63.9988C63.88 104.383 63.766 104.43 63.682 104.514C63.598 104.598 63.5508 104.712 63.5508 104.831C63.5508 104.95 63.598 105.064 63.682 105.148C63.766 105.232 63.88 105.279 63.9988 105.279Z" fill="#FAFAFA"/>
</g>
<path d="M28.8582 51.1317L30.3718 51.0645L29.687 53.9445C29.1469 53.5746 28.6546 53.1393 28.2214 52.6485C28.0965 52.5016 28.0345 52.3114 28.0489 52.1191C28.0633 51.9268 28.1529 51.7479 28.2982 51.6213L28.8582 51.1317Z" fill="#E4897B"/>
<path d="M32.1291 52.6165L31.4507 54.9589L29.6875 53.9381L30.3723 51.0645L32.1291 52.6165Z" fill="#E4897B"/>
<path d="M31.8315 38.7113L28.7344 38.998L35.8378 115.716L38.935 115.43L31.8315 38.7113Z" fill="#BB0A08"/>
<path opacity="0.3" d="M31.8315 38.7113L28.7344 38.998L35.8378 115.716L38.935 115.43L31.8315 38.7113Z" fill="black"/>
<path d="M38.0268 38.1351L34.9297 38.4219L42.0331 115.14L45.1303 114.853L38.0268 38.1351Z" fill="#BB0A08"/>
<path opacity="0.3" d="M38.0268 38.1351L34.9297 38.4219L42.0331 115.14L45.1303 114.853L38.0268 38.1351Z" fill="black"/>
<path d="M34.9292 38.4222L31.832 38.709L38.9355 115.427L42.0326 115.14L34.9292 38.4222Z" fill="#BB0A08"/>
<path opacity="0.1" d="M34.9292 38.4222L31.832 38.709L38.9355 115.427L42.0326 115.14L34.9292 38.4222Z" fill="black"/>
<path d="M34.2768 33.0586L31.4896 33.3178L28.7344 38.9978L38.0272 38.137L34.2768 33.0586Z" fill="#BB0A08"/>
<g opacity="0.8">
<path d="M34.2768 33.0586L31.4896 33.3178L28.7344 38.9978L38.0272 38.137L34.2768 33.0586Z" fill="#FAFAFA"/>
</g>
<path d="M32.6691 30.8828L31.4883 33.318L34.2755 33.0588L32.6691 30.8828Z" fill="#263238"/>
<path d="M56.087 35.2188C56.407 35.5387 56.6726 35.8427 56.9478 36.1787C57.223 36.5147 57.4854 36.8187 57.7478 37.1387C58.2758 37.7787 58.7686 38.454 59.2486 39.142C60.2381 40.5408 61.0729 42.0429 61.7382 43.622C61.8182 43.8268 61.8918 44.0412 61.9686 44.262L62.0838 44.582C62.1472 44.7735 62.1922 44.9707 62.2182 45.1708C62.2877 45.8076 62.2032 46.4518 61.9718 47.0491C61.6264 47.931 61.1425 48.752 60.5382 49.4812C59.4698 50.7888 58.2397 51.9554 56.8774 52.9531L55.671 51.6731C56.6205 50.4862 57.4886 49.2364 58.2694 47.9323C58.6115 47.3752 58.8743 46.7732 59.0502 46.1435C59.0989 45.989 59.1044 45.8242 59.0662 45.6668L58.9574 45.4299C58.8838 45.2732 58.8198 45.11 58.7398 44.9564C58.0625 43.642 57.27 42.3901 56.3718 41.2156C55.9238 40.6044 55.4502 40.0091 54.9702 39.4139C54.7302 39.1195 54.487 38.8251 54.2374 38.5371L53.5078 37.6956L56.087 35.2188Z" fill="#E4897B"/>
<path d="M53.7344 52.6492L55.0976 55.3469L56.432 54.198L55.3376 52.2812L53.7344 52.6492Z" fill="#E4897B"/>
<path d="M43.4675 36.7979C42.6376 38.3787 41.7758 39.9414 40.8819 41.4859C40.4435 42.2635 39.9827 43.0283 39.5347 43.7995L38.8467 44.9515L38.6739 45.2395C38.5875 45.3771 38.4915 45.5403 38.4051 45.6491C38.3187 45.7579 38.2323 45.8891 38.1491 45.9883C38.0659 46.0875 37.9763 46.1995 37.8931 46.2923C37.2467 46.9965 36.5585 47.6612 35.8323 48.2827C35.1315 48.8811 34.4307 49.4635 33.7075 50.0171C32.2771 51.1339 30.8083 52.1739 29.2851 53.1659L28.1875 51.7835L31.9795 48.0491C32.6003 47.4091 33.2275 46.8075 33.8195 46.1739C34.4012 45.5777 34.9492 44.9495 35.4611 44.2923C35.523 44.2155 35.5774 44.1419 35.6243 44.0715C35.6787 43.9947 35.7171 43.9307 35.7555 43.8667C35.7886 43.8153 35.8185 43.7618 35.8451 43.7067L35.9923 43.4091L36.5843 42.2027C36.9907 41.4059 37.3875 40.6027 37.8003 39.8123C38.6174 38.2187 39.4707 36.6433 40.3603 35.0859L43.4675 36.7979Z" fill="#E4897B"/>
<path d="M52.4499 25.9896C52.4083 26.1752 52.4755 26.3512 52.5939 26.3832C52.7123 26.4152 52.8435 26.2872 52.8851 26.1016C52.9267 25.916 52.8563 25.74 52.7379 25.708C52.6195 25.676 52.4787 25.804 52.4499 25.9896Z" fill="#263238"/>
<path d="M52.4532 26.3477C52.5535 26.9718 52.7364 27.5798 52.9972 28.1557C52.85 28.214 52.6917 28.2393 52.5336 28.2299C52.3755 28.2205 52.2214 28.1766 52.082 28.1013L52.4532 26.3477Z" fill="#DE5753"/>
<path d="M52.9384 24.863C52.9157 24.8631 52.8934 24.8564 52.8744 24.8438C52.7562 24.7716 52.6222 24.7292 52.484 24.7203C52.3457 24.7113 52.2074 24.7362 52.0808 24.7926C52.0532 24.8034 52.0225 24.8031 51.995 24.7918C51.9676 24.7804 51.9456 24.759 51.9336 24.7318C51.9229 24.7042 51.9232 24.6734 51.9345 24.646C51.9458 24.6186 51.9673 24.5966 51.9944 24.5846C52.1562 24.5152 52.3323 24.4859 52.5079 24.4992C52.6834 24.5126 52.8531 24.5683 53.0024 24.6614C53.0146 24.6695 53.025 24.6799 53.0331 24.692C53.0411 24.7042 53.0467 24.7178 53.0494 24.7321C53.0521 24.7464 53.0518 24.7612 53.0487 24.7754C53.0456 24.7897 53.0397 24.8031 53.0312 24.815C53.0208 24.83 53.0069 24.8421 52.9908 24.8505C52.9746 24.8589 52.9566 24.8632 52.9384 24.863Z" fill="#263238"/>
<path d="M45.9734 26.6973C46.3766 28.4189 46.8342 31.5677 45.6758 32.7165C45.6758 32.7165 46.2134 34.4605 49.4102 34.4605C52.9302 34.4605 51.0102 32.7165 51.0102 32.7165C49.0742 32.2589 49.0678 30.8349 49.3494 29.5005L45.9734 26.6973Z" fill="#E4897B"/>
<path d="M45.2427 33.3133C44.9675 32.7629 44.6667 32.1293 45.2427 31.9309C45.8635 31.7133 49.3099 31.4925 50.5163 31.8989C50.8377 31.9849 51.113 32.1927 51.2839 32.4782C51.4547 32.7638 51.5077 33.1046 51.4315 33.4285L45.2427 33.3133Z" fill="#BB0A08"/>
<path opacity="0.6" d="M45.2427 33.3133C44.9675 32.7629 44.6667 32.1293 45.2427 31.9309C45.8635 31.7133 49.3099 31.4925 50.5163 31.8989C50.8377 31.9849 51.113 32.1927 51.2839 32.4782C51.4547 32.7638 51.5077 33.1046 51.4315 33.4285L45.2427 33.3133Z" fill="#FAFAFA"/>
<path d="M40.6376 113.598C40.431 113.597 40.2251 113.575 40.0232 113.531C40.0128 113.529 40.0032 113.524 39.9958 113.517C39.9883 113.51 39.9834 113.5 39.9816 113.49C39.9794 113.479 39.9804 113.468 39.9844 113.458C39.9884 113.447 39.9951 113.439 40.004 113.432C40.0296 113.413 40.644 112.971 41.0024 113.048C41.0411 113.055 41.0778 113.07 41.1099 113.093C41.142 113.115 41.1687 113.145 41.188 113.179C41.2168 113.218 41.2324 113.264 41.2324 113.312C41.2324 113.36 41.2168 113.407 41.188 113.445C41.1112 113.57 40.8776 113.598 40.6376 113.598ZM40.18 113.451C40.532 113.509 41.012 113.509 41.108 113.378C41.108 113.378 41.1464 113.326 41.092 113.234C41.0802 113.213 41.0641 113.196 41.0447 113.182C41.0253 113.169 41.0032 113.16 40.98 113.157C40.6894 113.176 40.4109 113.28 40.18 113.458V113.451Z" fill="#FAFAFA"/>
<path d="M40.035 113.542H40.0062C39.9978 113.537 39.991 113.53 39.9865 113.521C39.982 113.513 39.9799 113.503 39.9806 113.494C39.9806 113.465 40.0094 112.786 40.275 112.562C40.3069 112.534 40.3445 112.512 40.3854 112.5C40.4262 112.487 40.4694 112.483 40.5118 112.489C40.5549 112.489 40.5968 112.504 40.63 112.531C40.6633 112.559 40.686 112.597 40.6942 112.639C40.7454 112.902 40.2974 113.414 40.0542 113.545L40.035 113.542ZM40.4734 112.582C40.4274 112.582 40.3831 112.599 40.3486 112.63C40.1916 112.845 40.1045 113.103 40.099 113.369C40.3294 113.186 40.6142 112.799 40.5854 112.646C40.5854 112.63 40.5854 112.591 40.499 112.582H40.4734Z" fill="#FAFAFA"/>
<path d="M54.757 113.6C54.5144 113.6 54.2723 113.577 54.0338 113.533C54.0226 113.531 54.0123 113.525 54.0042 113.517C53.9962 113.509 53.9909 113.499 53.989 113.488C53.9872 113.477 53.9887 113.465 53.9932 113.455C53.9978 113.445 54.0052 113.436 54.0146 113.43C54.133 113.363 55.1762 112.765 55.429 113.177C55.4544 113.213 55.468 113.256 55.468 113.301C55.468 113.345 55.4544 113.388 55.429 113.424C55.3586 113.565 55.0578 113.6 54.757 113.6ZM54.2098 113.449C54.6514 113.513 55.2466 113.504 55.349 113.36C55.349 113.36 55.381 113.315 55.333 113.235C55.1922 113.008 54.5586 113.28 54.2098 113.456V113.449Z" fill="#FAFAFA"/>
<path d="M54.0431 113.542C54.0326 113.545 54.0216 113.545 54.0111 113.542C54.0031 113.536 53.9968 113.529 53.9928 113.519C53.9889 113.51 53.9875 113.501 53.9887 113.491C53.9887 113.465 54.0271 112.832 54.3087 112.585C54.3514 112.546 54.4023 112.517 54.4577 112.501C54.5131 112.484 54.5716 112.48 54.6287 112.489C54.7855 112.505 54.8303 112.585 54.8399 112.649C54.8847 112.921 54.3503 113.417 54.0687 113.545L54.0431 113.542ZM54.5807 112.582C54.5097 112.581 54.441 112.607 54.3887 112.656C54.2205 112.862 54.1229 113.116 54.1103 113.382C54.3919 113.209 54.7503 112.816 54.7279 112.652C54.7279 112.636 54.7279 112.595 54.6127 112.582H54.5807Z" fill="#FAFAFA"/>
<path d="M51.457 113.484H53.809L53.8314 108.041H51.4826L51.457 113.484Z" fill="#E4897B"/>
<path d="M37.3398 113.484H39.6918L40.6646 108.041H38.3126L37.3398 113.484Z" fill="#E4897B"/>
<path d="M39.8522 113.211H37.2122C37.1655 113.21 37.1202 113.226 37.0844 113.256C37.0486 113.286 37.0247 113.328 37.017 113.374L36.633 115.464C36.6251 115.516 36.6286 115.569 36.6432 115.619C36.6578 115.669 36.6832 115.716 36.7176 115.755C36.752 115.795 36.7946 115.827 36.8424 115.848C36.8903 115.87 36.9422 115.88 36.9946 115.88C37.9162 115.864 38.361 115.809 39.5226 115.809C40.2362 115.809 41.7114 115.886 42.7002 115.886C43.689 115.886 43.7754 114.926 43.369 114.821C41.5418 114.424 40.8378 113.877 40.2394 113.358C40.1326 113.264 39.9949 113.211 39.8522 113.211Z" fill="#263238"/>
<path d="M53.7812 113.211H51.2212C51.1745 113.21 51.1291 113.226 51.0933 113.256C51.0575 113.286 51.0336 113.328 51.026 113.374L50.642 115.464C50.633 115.515 50.6355 115.568 50.6493 115.618C50.6631 115.669 50.6879 115.716 50.7218 115.755C50.7557 115.795 50.798 115.827 50.8456 115.848C50.8932 115.87 50.9449 115.881 50.9972 115.88C51.922 115.864 53.2564 115.809 54.4212 115.809C55.7844 115.809 56.962 115.886 58.5588 115.886C59.5188 115.886 59.7524 114.926 59.346 114.821C57.49 114.417 55.986 114.376 54.3604 113.397C54.1884 113.282 53.9878 113.218 53.7812 113.211Z" fill="#263238"/>
<path d="M41.1948 33.2474C39.0092 33.753 36.7148 39.7594 36.7148 39.7594L41.2556 42.793C42.2982 41.2123 43.212 39.5504 43.9884 37.8234C45.1884 35.0746 43.4252 32.7322 41.1948 33.2474Z" fill="#BB0A08"/>
<path opacity="0.7" d="M41.1948 33.2474C39.0092 33.753 36.7148 39.7594 36.7148 39.7594L41.2556 42.793C42.2982 41.2123 43.212 39.5504 43.9884 37.8234C45.1884 35.0746 43.4252 32.7322 41.1948 33.2474Z" fill="black"/>
<path d="M42.9175 37.0781L41.0391 42.6493L41.2535 42.7933C41.2535 42.7933 42.1111 41.5133 43.0231 39.8077L42.9175 37.0781Z" fill="#BB0A08"/>
<path opacity="0.8" d="M42.9175 37.0781L41.0391 42.6493L41.2535 42.7933C41.2535 42.7933 42.1111 41.5133 43.0231 39.8077L42.9175 37.0781Z" fill="black"/>
<path d="M55.8609 43.7491C55.8417 46.3731 55.6849 49.6371 55.2945 53.6883H42.7185C42.5553 51.7683 43.4065 42.3411 41.1953 33.2467C42.5785 32.9786 43.9778 32.8012 45.3841 32.7155C47.164 32.6131 48.9483 32.6131 50.7281 32.7155C51.9556 32.8349 53.172 33.0488 54.3665 33.3555C54.3665 33.3555 55.4417 34.5203 55.7681 39.9827C55.8321 41.0739 55.8673 42.3155 55.8609 43.7491Z" fill="#BB0A08"/>
<path opacity="0.7" d="M55.8609 43.7491C55.8417 46.3731 55.6849 49.6371 55.2945 53.6883H42.7185C42.5553 51.7683 43.4065 42.3411 41.1953 33.2467C42.5785 32.9786 43.9778 32.8012 45.3841 32.7155C47.164 32.6131 48.9483 32.6131 50.7281 32.7155C51.9556 32.8349 53.172 33.0488 54.3665 33.3555C54.3665 33.3555 55.4417 34.5203 55.7681 39.9827C55.8321 41.0739 55.8673 42.3155 55.8609 43.7491Z" fill="black"/>
<path d="M55.8581 43.7483C55.0965 42.3595 53.7141 39.5723 53.9093 37.9883L55.7653 39.9979C55.8293 41.0731 55.8645 42.3147 55.8581 43.7483Z" fill="#BB0A08"/>
<path opacity="0.8" d="M55.8581 43.7483C55.0965 42.3595 53.7141 39.5723 53.9093 37.9883L55.7653 39.9979C55.8293 41.0731 55.8645 42.3147 55.8581 43.7483Z" fill="black"/>
<path d="M51.9002 35.4934C51.7018 37.7334 56.7802 43.1222 56.7802 43.1222L60.8506 39.807C59.7845 38.0079 58.5072 36.3428 57.0458 34.847C54.665 32.5462 52.1242 32.9846 51.9002 35.4934Z" fill="#BB0A08"/>
<path opacity="0.7" d="M51.9002 35.4934C51.7018 37.7334 56.7802 43.1222 56.7802 43.1222L60.8506 39.807C59.7845 38.0079 58.5072 36.3428 57.0458 34.847C54.665 32.5462 52.1242 32.9846 51.9002 35.4934Z" fill="black"/>
<path d="M53.8303 108.043L53.8175 110.846H51.4688L51.4783 108.043H53.8303Z" fill="#CE6F64"/>
<path d="M38.3149 108.043H40.6669L40.1645 110.846H37.8125L38.3149 108.043Z" fill="#CE6F64"/>
<path d="M46.3981 24.047C46.0557 26.3638 45.7389 27.695 46.6285 29.167C46.9113 29.6437 47.3192 30.0339 47.8079 30.2954C48.2967 30.5568 48.8476 30.6795 49.4011 30.6502C49.9546 30.6209 50.4895 30.4406 50.9479 30.1289C51.4062 29.8173 51.7705 29.3862 52.0013 28.8822C52.9197 26.9622 53.3293 23.4934 51.3101 22.0278C50.8841 21.6988 50.3789 21.4878 49.8454 21.4161C49.3119 21.3443 48.7689 21.4142 48.271 21.6189C47.7731 21.8236 47.3379 22.1557 47.0092 22.582C46.6804 23.0082 46.4697 23.5135 46.3981 24.047Z" fill="#E4897B"/>
<path d="M53.3565 22.9492C52.6639 23.3274 51.9019 23.5615 51.1165 23.6372C50.5309 26.3156 48.9725 29.3972 46.4509 28.5108C45.4909 28.1908 44.5309 25.8644 44.4317 23.8004C44.2653 24.002 44.1533 24.2644 44.0669 24.3732C43.923 23.4559 44.0268 22.5169 44.3677 21.6532C45.0653 19.6756 45.5293 20.9876 46.2877 19.7876C46.7773 18.994 47.6477 18.5844 49.1677 18.5332C48.7421 18.754 48.6621 19.1092 49.2925 19.058C49.9229 19.0068 52.6141 18.8596 54.1821 19.9188C53.1229 20.1588 53.7693 21.8388 55.1837 20.9428C54.6685 21.778 54.0285 22.5716 53.3565 22.9492Z" fill="#263238"/>
<path d="M49.3047 25.4811C49.3137 26.0703 49.511 26.6411 49.8679 27.1099C50.3447 27.7243 50.8919 27.4299 51.0231 26.7387C51.1383 26.1243 51.0231 25.0619 50.4279 24.6907C49.8327 24.3195 49.3015 24.7771 49.3047 25.4811Z" fill="#E4897B"/>
<path d="M46.4399 20.0381C46.1206 20.0179 45.811 19.9198 45.5383 19.7525C45.2655 19.5851 45.0378 19.3536 44.8751 19.0781C44.8751 19.0781 44.8335 20.9533 46.4399 20.0381Z" fill="#1E2A4C"/>
<path d="M50.8312 53.6886C50.8312 53.6886 48.86 71.6534 47.6536 78.383C46.3352 85.743 41.2536 110.306 41.2536 110.306H36.9336C36.9336 110.306 39.9992 86.3478 40.6392 79.039C41.3272 71.119 42.732 53.6758 42.732 53.6758L50.8312 53.6886Z" fill="#BB0A08"/>
<path opacity="0.6" d="M50.8312 53.6886C50.8312 53.6886 48.86 71.6534 47.6536 78.383C46.3352 85.743 41.2536 110.306 41.2536 110.306H36.9336C36.9336 110.306 39.9992 86.3478 40.6392 79.039C41.3272 71.119 42.732 53.6758 42.732 53.6758L50.8312 53.6886Z" fill="#FAFAFA"/>
<path d="M41.863 108.719C41.8822 108.719 41.4822 110.373 41.4822 110.373H36.6406L36.6726 108.898L41.863 108.719Z" fill="#BB0A08"/>
<path opacity="0.1" d="M41.863 108.719C41.8822 108.719 41.4822 110.373 41.4822 110.373H36.6406L36.6726 108.898L41.863 108.719Z" fill="#FAFAFA"/>
<path d="M49.3944 60.0893C46.332 60.6941 47.1032 72.1981 47.7016 78.1149C48.4312 73.9325 49.4232 65.8845 50.092 60.1725C49.8755 60.067 49.6297 60.0377 49.3944 60.0893Z" fill="#BB0A08"/>
<path opacity="0.4" d="M49.3944 60.0893C46.332 60.6941 47.1032 72.1981 47.7016 78.1149C48.4312 73.9325 49.4232 65.8845 50.092 60.1725C49.8755 60.067 49.6297 60.0377 49.3944 60.0893Z" fill="#FAFAFA"/>
<path d="M55.289 53.6875C55.289 53.6875 56.2938 71.2619 56.313 78.4331C56.3354 85.8891 54.6746 110.305 54.6746 110.305H50.6906C50.6906 110.305 49.6186 86.3243 49.1578 79.0027C48.6586 71.0187 47.0234 53.6875 47.0234 53.6875H55.289Z" fill="#BB0A08"/>
<path opacity="0.6" d="M55.289 53.6875C55.289 53.6875 56.2938 71.2619 56.313 78.4331C56.3354 85.8891 54.6746 110.305 54.6746 110.305H50.6906C50.6906 110.305 49.6186 86.3243 49.1578 79.0027C48.6586 71.0187 47.0234 53.6875 47.0234 53.6875H55.289Z" fill="#FAFAFA"/>
<path d="M56.2541 51.4297L55.1373 51.5193C55.0463 51.5269 54.9581 51.5547 54.8793 51.6007C54.8004 51.6467 54.7327 51.7096 54.6812 51.785C54.6298 51.8604 54.5957 51.9464 54.5816 52.0366C54.5675 52.1268 54.5737 52.219 54.5997 52.3065L55.0605 53.8585C55.0994 53.9846 55.1681 54.0994 55.261 54.1932C55.3538 54.287 55.4679 54.357 55.5936 54.3972C55.7193 54.4375 55.8528 54.4467 55.9829 54.4242C56.1129 54.4018 56.2356 54.3482 56.3405 54.2681C56.9173 53.7312 57.331 53.0424 57.5341 52.2809L56.2541 51.4297Z" fill="#E4897B"/>
<path d="M53.7337 107.445C53.723 107.443 53.7132 107.438 53.7061 107.43C53.699 107.421 53.6952 107.411 53.6953 107.4C54.1369 100.645 55.1609 84.296 55.1417 78.4336C55.1417 72.4336 54.4121 59.0128 54.1817 55.0416C54.1813 55.0363 54.1819 55.031 54.1837 55.0259C54.1854 55.0209 54.1882 55.0163 54.1918 55.0124C54.1954 55.0084 54.1998 55.0053 54.2046 55.0032C54.2095 55.0011 54.2148 55 54.2201 55C54.2306 55 54.2407 55.0039 54.2485 55.011C54.2562 55.0182 54.2609 55.0279 54.2617 55.0384C54.4793 59.0096 55.1929 72.4304 55.2217 78.4336C55.2409 84.2992 54.2169 100.648 53.7753 107.406C53.7753 107.412 53.7742 107.417 53.7721 107.422C53.77 107.427 53.7669 107.431 53.763 107.435C53.759 107.438 53.7544 107.441 53.7494 107.443C53.7444 107.445 53.739 107.445 53.7337 107.445Z" fill="#BB0A08"/>
<path opacity="0.3" d="M53.7337 107.445C53.723 107.443 53.7132 107.438 53.7061 107.43C53.699 107.421 53.6952 107.411 53.6953 107.4C54.1369 100.645 55.1609 84.296 55.1417 78.4336C55.1417 72.4336 54.4121 59.0128 54.1817 55.0416C54.1813 55.0363 54.1819 55.031 54.1837 55.0259C54.1854 55.0209 54.1882 55.0163 54.1918 55.0124C54.1954 55.0084 54.1998 55.0053 54.2046 55.0032C54.2095 55.0011 54.2148 55 54.2201 55C54.2306 55 54.2407 55.0039 54.2485 55.011C54.2562 55.0182 54.2609 55.0279 54.2617 55.0384C54.4793 59.0096 55.1929 72.4304 55.2217 78.4336C55.2409 84.2992 54.2169 100.648 53.7753 107.406C53.7753 107.412 53.7742 107.417 53.7721 107.422C53.77 107.427 53.7669 107.431 53.763 107.435C53.759 107.438 53.7544 107.441 53.7494 107.443C53.7444 107.445 53.739 107.445 53.7337 107.445Z" fill="#FAFAFA"/>
<path d="M55.3811 108.719C55.4003 108.719 55.2211 110.373 55.2211 110.373H50.3763L50.1875 108.898L55.3811 108.719Z" fill="#BB0A08"/>
<path opacity="0.1" d="M55.3811 108.719C55.4003 108.719 55.2211 110.373 55.2211 110.373H50.3763L50.1875 108.898L55.3811 108.719Z" fill="#FAFAFA"/>
</svg>
