<svg xmlns="http://www.w3.org/2000/svg" viewBox="0 0 750 500"><g id="freepik--background-simple--inject-349"><path d="M707.79,150.57c-12-37.74-33.54-70.66-69.44-89-48-24.58-108.71-25.19-164.54-6.35C442,65.92,412.57,84,383.87,102.39c-25.5,16.36-55.46,41.35-84.95,46.63-39.92,7.15-124-50.85-195.18-34.85s-103.49,106-94.15,162,75.34,56,93.05,102,98.38,85,207.94,59,166.6-41,219.73-20,129.31,27,167.34-61c15.23-35.23,23.37-72.6,23.44-109C721.14,215.24,717.6,181.3,707.79,150.57Z" style="fill:#BB0A08"></path><path d="M707.79,150.57c-12-37.74-33.54-70.66-69.44-89-48-24.58-108.71-25.19-164.54-6.35C442,65.92,412.57,84,383.87,102.39c-25.5,16.36-55.46,41.35-84.95,46.63-39.92,7.15-124-50.85-195.18-34.85s-103.49,106-94.15,162,75.34,56,93.05,102,98.38,85,207.94,59,166.6-41,219.73-20,129.31,27,167.34-61c15.23-35.23,23.37-72.6,23.44-109C721.14,215.24,717.6,181.3,707.79,150.57Z" style="fill:#fff;opacity:0.7000000000000001"></path></g><g id="freepik--Mouth--inject-349"><path d="M194.05,254.77s67.94,40.88,97.81,43.54,55.87-12.08,103-4.12,55.09,7.3,84.95.67,63.06-29.21,63.06-29.21Z" style="fill:#263238"></path><path d="M443.69,300.49c-11.72,0-25.47-1.84-48.91-5.8-27.78-4.7-48.32-1.47-66.44,1.39-12.47,2-24.25,3.81-36.52,2.72-29.64-2.63-97.35-43.19-98-43.6l-1.64-1,352.27,11-1.27.87c-.34.22-33.61,22.69-63.23,29.28C464.88,298.69,455.28,300.49,443.69,300.49Zm-76.78-9.18a167.18,167.18,0,0,1,28,2.39c46.47,7.86,54.68,7.35,84.77.67,26.11-5.8,55.13-24.07,61.57-28.26L196,255.33c10.62,6.26,69.12,40.09,95.94,42.48,12.14,1.08,23.87-.77,36.28-2.72C339.71,293.28,352.2,291.31,366.91,291.31Z" style="fill:#263238"></path><ellipse cx="376.14" cy="174.87" rx="117.68" ry="32.85" style="fill:#263238"></ellipse><path d="M376.14,208.22c-31.48,0-61.08-3.42-83.35-9.64C270.33,192.31,258,183.89,258,174.87s12.37-17.44,34.83-23.71c22.27-6.22,51.87-9.64,83.35-9.64s61.08,3.42,83.35,9.64c22.47,6.27,34.84,14.69,34.84,23.71S482,192.31,459.49,198.58C437.22,204.8,407.62,208.22,376.14,208.22Zm0-65.7C311.53,142.52,259,157,259,174.87s52.57,32.35,117.18,32.35,117.19-14.51,117.19-32.35S440.76,142.52,376.14,142.52Z" style="fill:#263238"></path><path d="M411,62.86c-10.59,2.49-21.06,5.56-32.11,4.7-15-1.18-29-8.15-44.15-8.54A106.75,106.75,0,0,0,294,66.34c-42.85,16.32-92.51,55.78-108.16,73.46s-32.65,46.26-38.77,52.39-12.25,3.4-14.29,6.12.68,7.48,15.65,6.12,51-10.88,97.27-23.13,78.92-16.33,84.36-17,23.13.68,38.09,2.73,44.22-1.37,46.94-2.73S458,167,474.31,173.14,588.6,200.35,598.8,201s15,0,16.33-6.8-6.81-6.13-10.89-10.21-2.72-3.4-27.89-32c-22.38-25.4-48.87-46.88-76.79-65.89-11.24-7.65-23-15.09-35.54-20.34a78.79,78.79,0,0,0-41.62-5.2C418.58,61.15,414.8,62,411,62.86Z" style="fill:#BB0A08"></path><path d="M143.52,205.67c-8.26,0-11-2.34-11.82-3.9a3.64,3.64,0,0,1,.32-4.06c1.08-1.44,2.84-1.68,4.88-2,2.71-.38,6.09-.85,9.5-4.26,2.54-2.54,7.23-9.37,12.66-17.29,7.59-11.06,17-24.84,26.07-35.05C200.64,121.61,250.18,82,293.69,65.4A107.33,107.33,0,0,1,334.8,58c8.17.21,16.08,2.33,23.72,4.37C365.16,64.18,372,66,379,66.56c9.46.74,18.73-1.51,27.7-3.69l4.1-1h0c3.36-.79,7.34-1.67,11.46-2.26a80.4,80.4,0,0,1,42.15,5.27c12.94,5.41,24.81,13,35.71,20.44,31.6,21.52,56.78,43.13,77,66.06,14,15.89,19.78,22.72,22.89,26.39,2.44,2.88,3.18,3.75,5,5.53a15.56,15.56,0,0,0,5,2.92c3.35,1.43,7.14,3,6.11,8.19-1.61,8.05-7.93,8.24-17.38,7.61-9.86-.66-108-21.69-124.77-28s-55.88-9.86-58.4-8.87c-2.91,1.45-32.15,4.9-47.5,2.81s-32.78-3.35-37.84-2.72c-11.43,1.43-42.53,5.94-84.22,17-46,12.17-82.28,21.78-97.44,23.16C146.68,205.6,145,205.67,143.52,205.67ZM332.31,60a106.3,106.3,0,0,0-37.91,7.28c-43.2,16.46-92.38,55.8-107.77,73.2-8.95,10.12-18.36,23.83-25.92,34.85-5.72,8.33-10.23,14.9-12.9,17.57-3.88,3.88-7.78,4.43-10.64,4.83-1.72.24-3,.42-3.55,1.19a1.65,1.65,0,0,0-.17,1.89c1,1.83,5.48,3.49,14.93,2.63,15-1.36,51.23-11,97.11-23.1,41.81-11.06,73-15.59,84.48-17,5.93-.74,24.52.84,38.36,2.72,15.3,2.09,44-1.46,46.35-2.62,3.26-1.62,43.95,2.79,60,8.8C491.31,178.44,589,199.38,598.87,200c10.25.68,14.1-.12,15.28-6,.68-3.4-1.23-4.38-4.93-6a17.25,17.25,0,0,1-5.68-3.34,73.33,73.33,0,0,1-5.08-5.66c-3.1-3.66-8.87-10.48-22.86-26.36-20.08-22.8-45.14-44.3-76.6-65.72-10.82-7.37-22.58-14.92-35.36-20.25a78.32,78.32,0,0,0-41.1-5.13c-4,.56-8,1.44-11.28,2.22h0l-4.09,1c-9.11,2.22-18.54,4.51-28.33,3.74C371.7,68,364.73,66.13,358,64.33c-7.53-2-15.31-4.11-23.25-4.31Z" style="fill:#263238"></path><path d="M138.94,203.75s12.93,24.49,55.11,51,84.37,37.06,105.44,38.77c24.35,2,57.82-4.08,72.1-3.4s55.1,8.85,91.84,2,64.62-14.28,99.32-35.37,47.19-49.49,47.87-53.57-2.3-.17-11.82-2.21S557.3,182,529.41,176.54s-66.66-2.72-87.75,0-57.14,5.44-76.19,4.08-66.66-8.16-89.11-5.44-46.94,8.84-64.63,14.28S153.23,202.39,138.94,203.75Z" style="fill:#BB0A08"></path><path d="M431.15,295.86c-17.7,0-34.25-2-45.9-3.33-5.83-.69-10.44-1.23-13.7-1.39-5.76-.27-14.67.56-25,1.53-15.3,1.43-32.64,3.05-47.16,1.87-23.31-1.89-65-13.22-105.89-38.92-41.92-26.37-55.32-51.16-55.45-51.4l-.7-1.32,1.49-.15c14.32-1.36,54.79-8.77,72.59-14.24,10.43-3.21,37.62-11,64.8-14.32,16.68-2,47.18,1.18,69.46,3.52,8,.83,14.87,1.56,19.84,1.91,19.71,1.41,56.31-1.53,76-4.07,8.85-1.14,54.68-6.51,88.08,0,18,3.51,37.59,11.77,51.9,17.8,7.92,3.34,14.18,6,17.5,6.69a25.28,25.28,0,0,0,9.07.37c1.47-.18,2.44-.29,3.13.42a2.92,2.92,0,0,1,.39,2.56C611,207,598.84,236,563.27,257.66c-33.91,20.61-61.19,28.38-99.66,35.51A179.65,179.65,0,0,1,431.15,295.86Zm-62-6.77c.89,0,1.73,0,2.51.05,3.34.16,8,.71,13.84,1.4,18.58,2.19,49.67,5.86,77.77.66,38.23-7.08,65.33-14.79,99-35.24,34.94-21.24,46.81-49.37,47.4-52.88a4.8,4.8,0,0,0,.08-.8,12.74,12.74,0,0,0-1.4.12,27.35,27.35,0,0,1-9.72-.39c-3.51-.76-9.84-3.43-17.86-6.81-14.23-6-33.72-14.21-51.51-17.68-33.09-6.46-78.64-1.12-87.43,0-19.77,2.55-56.54,5.51-76.39,4.09-5-.36-11.91-1.08-19.91-1.93-22.18-2.32-52.55-5.51-69-3.52-27,3.28-54.08,11.06-64.45,14.25-17.29,5.32-55.85,12.45-71.43,14.16,3.33,5.4,18,26.73,54,49.34,40.55,25.51,81.9,36.75,105,38.63,14.34,1.16,31.59-.45,46.81-1.88C355.39,289.83,363.33,289.09,369.13,289.09Z" style="fill:#263238"></path><path d="M308.7,288.41c-9.35,0-21.6-1.46-37.8-6.68-29.11-9.37-74.89-32.2-75.35-32.43l.45-.89c.45.22,46.16,23,75.21,32.37,28.53,9.19,44.69,6.62,54.35,5.09l.75-.12.16,1-.75.12A102.23,102.23,0,0,1,308.7,288.41Z" style="fill:#263238"></path><path d="M430.23,287.29a288.83,288.83,0,0,1-40.36-2.73l.15-1c18.53,2.78,61.66,5.63,92.26-3.49,22-6.56,44.55-16.05,56-21.12l.41.92C527.21,265,504.65,274.46,482.56,281,466.75,285.75,447.61,287.29,430.23,287.29Z" style="fill:#263238"></path><path d="M542.07,258.37l-.41-.91c4.44-2,7.08-3.26,7.1-3.27l.43.9S546.52,256.37,542.07,258.37Z" style="fill:#263238"></path><path d="M380.08,282.46c-.13,0-13.33-1.39-19.51-.7l-.11-1c6.29-.69,19.18.65,19.73.71Z" style="fill:#263238"></path><path d="M405.09,160.6l-.29-1c5.94-1.81,10.13-3.53,10.17-3.55l.38.93S411.08,158.77,405.09,160.6Z" style="fill:#263238"></path><path d="M245.47,176.78l-.2-1c.32-.06,32-6.5,56.26-13.42,23.94-6.84,38.11-6.45,45.77-4.91,1.12.22,2.67.57,4.53,1,9.87,2.22,28.23,6.36,38.73,4.61,2.06-.34,4.23-.79,6.46-1.31l.23,1c-2.25.53-4.45,1-6.53,1.33-10.69,1.78-29.18-2.39-39.11-4.63-1.85-.41-3.39-.76-4.5-1-7.56-1.51-21.56-1.89-45.31,4.89C277.55,170.27,245.79,176.72,245.47,176.78Z" style="fill:#263238"></path><path d="M268.75,205.26s-4.64,6-.66,34.51,9.29,27.21,10.62,20.57,4.64-23.89,7.3-15.26S294.64,269,300.61,261s8.63-20.58,11.28-18.59,6.64,18.59,13.28,17.92,14.6-22.56,14.6-22.56,6.64,10.62,10.62,9.95,6-9.95,6-9.95,2,12.61,5.31,12.61,8.63-27.88,4-40.49-14.61,7.3-14.61,7.3-1.32-22.56-4.64-16.59-12,13.27-12,13.27,0-24.55-7.3-19.91-12,19.25-15.27,18.59-1.32-18.59-7.3-17.26-11.28,8.63-11.28,8.63S292,180,286.67,183.35s-9.29,19.92-9.29,19.92S280,184,275.39,188,268.75,205.26,268.75,205.26Z" style="fill:#fff;opacity:0.42"></path><path d="M269.87,258.93,297,249.44c-.76-1.82-1.61-4.13-2.49-7-2.4-7.82-7.88-8.67-10.12-8.67a9.27,9.27,0,0,0-7.64,3.63c-2.51-18.75-.87-25.88-.4-27.41l.86-1.11.34-2.31c.14-.89.31-1.81.51-2.73l6.34,1.19,1.38,24.38,14.72-20.24.46-.59c.82,5.26,2.44,11.38,9.15,12.72a10.15,10.15,0,0,0,2,.2h0c6.59,0,9.81-5.38,13.21-11.06a.86.86,0,0,1,.1-.16c.06,1.21.1,2.43.1,3.6l0,19.21,9.26-7.83-3.44,9.46A88.94,88.94,0,0,1,325,248.38c-.71-1.43-1.38-2.91-1.83-3.91-1.87-4.15-3.22-7.14-5.95-9.19a9.79,9.79,0,0,0-5.93-2c-7.07,0-9.82,6.2-12.48,12.19C298.29,246.72,297.69,248.08,297,249.44ZM351.63,236l6.92-13.83a85.89,85.89,0,0,1-1.12,14ZM339.8,221.06l.43-.36c.25-.21,1-.83,2-1.75l.39,6.56Z" style="fill:#fff"></path><path d="M246.19,200a67.25,67.25,0,0,0-4,33.18c2.66,17.92,9.3-11.28,10-8.63s3.32,20.58,6,13.94,7.3-31.19,3.32-28.54-6.63,10.62-7.3,4S255.48,188,246.19,200Z" style="fill:#fff;opacity:0.42"></path><path d="M481.47,205.26s4.65,6,.66,34.51-9.29,27.21-10.62,20.57-4.64-23.89-7.3-15.26S455.58,269,449.61,261s-8.63-20.58-11.28-18.59-6.64,18.59-13.28,17.92-14.6-22.56-14.6-22.56-6.64,10.62-10.62,9.95-6-9.95-6-9.95-2,12.61-5.31,12.61-8.63-27.88-4-40.49,14.6,7.3,14.6,7.3,1.33-22.56,4.64-16.59,11.95,13.27,11.95,13.27,0-24.55,7.3-19.91,11.95,19.25,15.27,18.59,1.33-18.59,7.3-17.26,11.28,8.63,11.28,8.63,1.33-23.89,6.64-20.58,9.29,19.92,9.29,19.92-2.65-19.25,2-15.27S481.47,205.26,481.47,205.26Z" style="fill:#fff;opacity:0.42"></path><path d="M480.35,258.93m-27.16-9.49c-.65-1.36-1.26-2.72-1.81-4-2.66-6-5.4-12.19-12.48-12.19a9.79,9.79,0,0,0-5.93,2c-2.73,2.05-4.08,5-6,9.19-.44,1-1.11,2.48-1.82,3.91a88.13,88.13,0,0,1-6.36-13.66l-3.45-9.45,9.3,7.86V213.88c0-1.17,0-2.38.11-3.59l.09.16c3.41,5.68,6.62,11.06,13.22,11.06a10.05,10.05,0,0,0,2-.2c6.71-1.34,8.33-7.45,9.15-12.72l.48.62,14.72,19.85,1.36-24,6.34-1.19c.2.92.37,1.85.51,2.74l.35,2.3.85,1.1c.47,1.52,2.12,8.64-.39,27.42a9.28,9.28,0,0,0-7.65-3.63c-2.24,0-7.71.85-10.12,8.67C454.8,245.31,454,247.62,453.19,249.44Zm-60.4-13.28a85.9,85.9,0,0,1-1.11-14l7,13.82ZM408,219c1,.92,1.74,1.54,2,1.75l.4.34-2.77,4.43Z" style="fill:#fff"></path><path d="M504,200a67.31,67.31,0,0,1,4,33.18c-2.66,17.92-9.29-11.28-10-8.63s-3.32,20.58-6,13.94-7.3-31.19-3.32-28.54,6.64,10.62,7.3,4S494.74,188,504,200Z" style="fill:#fff;opacity:0.42"></path><g style="opacity:0.42"><path d="M291.85,76.39a112.55,112.55,0,0,1,41.85-7.32c15.58.39,29.91,7.37,45.36,8.54,11.36.86,22.11-2.21,33-4.7,3.87-.89,7.76-1.7,11.69-2.24a83,83,0,0,1,42.76,5.2c12.93,5.25,25,12.69,36.51,20.34,23,15.25,45.07,32.09,64.77,51.26-20.45-21.39-43.79-39.91-68.22-56.55-11.24-7.65-23-15.09-35.54-20.34a78.79,78.79,0,0,0-41.62-5.2c-3.82.54-7.6,1.35-11.37,2.24-10.59,2.49-21.06,5.56-32.11,4.7-15-1.17-29-8.15-44.15-8.54A106.75,106.75,0,0,0,294,71.1c-42.85,16.32-92.51,55.78-108.16,73.47l-.14.16C205.71,125.42,251.68,91.28,291.85,76.39Z" style="fill:#fff"></path></g><ellipse cx="339.74" cy="79.17" rx="10.36" ry="22.14" transform="translate(205.36 401.09) rotate(-80.46)" style="fill:#fff;opacity:0.42"></ellipse><path d="M353.31,78c-.06,2.17-3.63,3.83-8,3.71s-7.8-2-7.74-4.15,3.63-3.83,8-3.71S353.37,75.79,353.31,78Z" style="fill:#fff"></path></g><g id="freepik--character-1--inject-349"><path d="M294.58,238.62a14.59,14.59,0,0,1,9.25,2,13.5,13.5,0,0,1,4.63,4.45c3,5,.65,7.82,2.58,9.86s3.41,2.9,3.09,4.37-2.65,2.63-3,2.88.66,5-.12,7.57-7.08,2.49-7.08,2.49-.72,4.66-.9,6.19,1.27,13.3-5.11,9.67-10.06-7.2-10.45-8.73,1.65-6.27,1.73-7.76.14-2.19-.62-3.23-6-4.44-8.46-10.54.08-13.83,6.28-16.87A25.22,25.22,0,0,1,294.58,238.62Z" style="fill:#c9c9c9"></path><path d="M300.06,289.25a5,5,0,0,1-2.39-.75c-6.44-3.66-10.24-7.32-10.68-9.05-.27-1.05.37-3.11,1-5.09a17.23,17.23,0,0,0,.73-2.82v-.11c.07-1.36.1-1.93-.53-2.8a10.84,10.84,0,0,0-1.13-1.06c-1.92-1.69-5.5-4.82-7.4-9.58a14,14,0,0,1,6.53-17.51,25.54,25.54,0,0,1,8.34-2.36h0a15.16,15.16,0,0,1,9.57,2,13.76,13.76,0,0,1,4.79,4.63,11.81,11.81,0,0,1,1.77,6.78c0,1.28,0,2.22.75,3,.45.47.88.88,1.26,1.25,1.31,1.27,2.26,2.18,2,3.57s-2.15,2.56-2.94,3l-.12.07a14.2,14.2,0,0,0,.09,1.51,17.53,17.53,0,0,1-.16,5.88c-.76,2.51-5.56,2.81-7.13,2.85-.18,1.18-.69,4.51-.83,5.75,0,.2,0,.7,0,1.28.07,2.72.19,7.77-2.13,9.16A2.56,2.56,0,0,1,300.06,289.25Zm-5.43-50.13h0a24.34,24.34,0,0,0-8,2.26,13,13,0,0,0-6,16.24c1.81,4.54,5.27,7.57,7.13,9.19A10.46,10.46,0,0,1,289,268c.84,1.17.79,2,.72,3.44v.11a16.56,16.56,0,0,1-.77,3.06c-.5,1.59-1.17,3.77-1,4.55.32,1.28,3.7,4.73,10.2,8.43,1.16.65,2.08.79,2.72.4,1.83-1.09,1.71-5.94,1.65-8.27a12.4,12.4,0,0,1,0-1.43c.17-1.52.86-6,.89-6.21a.51.51,0,0,1,.5-.42H304c1.72,0,6-.38,6.49-2.14a17.2,17.2,0,0,0,.12-5.51c-.13-1.58-.17-2.05.19-2.31a3.38,3.38,0,0,1,.33-.21c.62-.37,2.26-1.34,2.48-2.37.17-.82-.39-1.4-1.68-2.65-.39-.37-.83-.8-1.29-1.28-1-1-1-2.26-1-3.66a11,11,0,0,0-1.62-6.28,12.77,12.77,0,0,0-4.46-4.28A14.15,14.15,0,0,0,294.63,239.12Z" style="fill:#263238"></path><path d="M297.49,242.57c1.87-2.08,3.54-2.7,4.74-2.81a14.72,14.72,0,0,0-7.65-1.14,25.22,25.22,0,0,0-8.18,2.31c-6.2,3-8.72,10.78-6.28,16.87s7.71,9.49,8.46,10.54a3.2,3.2,0,0,1,.57,1.16c4.94-.92,5.55-3.83,5.55-3.83a4.23,4.23,0,0,1-3.35.33c-1.82-.62-3.59-5.08-2.76-7.76s3.6-.54,4.26,1.1,2,2.69,2.67,2.19-.23-2.26-.41-3.54,2.52-4.37,2.91-5.65-1.12-1.68-3-2.63S293.67,246.78,297.49,242.57Z" style="fill:#263238"></path><path d="M289.15,270a.51.51,0,0,1-.49-.39,2.77,2.77,0,0,0-.48-1,10.84,10.84,0,0,0-1.13-1.06c-1.92-1.69-5.5-4.82-7.4-9.58a14,14,0,0,1,6.53-17.51,25.54,25.54,0,0,1,8.34-2.36,15.36,15.36,0,0,1,7.92,1.18.52.52,0,0,1,.29.54.51.51,0,0,1-.45.42,7.14,7.14,0,0,0-4.42,2.64h0c-2.39,2.64-3.51,4.49-3.33,5.49a1.22,1.22,0,0,0,.76.87c.32.17.63.32.93.46,1.4.67,2.72,1.31,2.28,2.77a11.79,11.79,0,0,1-1.3,2.29c-.7,1.08-1.67,2.56-1.59,3.14a9.08,9.08,0,0,0,.31,1.28c.32,1.08.64,2.19-.11,2.74a1.25,1.25,0,0,1-1.12.15,4.3,4.3,0,0,1-2.31-2.56,3.52,3.52,0,0,0-2.45-2.07c-.14,0-.58,0-.86.92-.76,2.46.88,6.61,2.45,7.14a3.7,3.7,0,0,0,2.92-.28.52.52,0,0,1,.55,0,.51.51,0,0,1,.2.51c0,.14-.74,3.25-5.95,4.22Zm7.15-31a13.48,13.48,0,0,0-1.67.1,24.34,24.34,0,0,0-8,2.26,13,13,0,0,0-6,16.24c1.81,4.54,5.27,7.57,7.13,9.19A10.46,10.46,0,0,1,289,268a4.11,4.11,0,0,1,.49.88,6.84,6.84,0,0,0,4.2-2.33,4.59,4.59,0,0,1-2.49-.12c-2.21-.75-4-5.53-3.08-8.38.43-1.37,1.3-1.61,1.78-1.63,1.44-.07,3,1.53,3.42,2.7a3.36,3.36,0,0,0,1.66,2,.26.26,0,0,0,.25,0c.19-.13-.12-1.19-.26-1.64a10,10,0,0,1-.34-1.42c-.12-.89.61-2.09,1.74-3.82a10.84,10.84,0,0,0,1.18-2.05c.17-.56-.22-.83-1.75-1.57-.31-.14-.63-.3-1-.47a2.22,2.22,0,0,1-1.28-1.58c-.25-1.38.85-3.34,3.57-6.34h0a9.63,9.63,0,0,1,3.43-2.57A14.44,14.44,0,0,0,296.3,239Zm1.19,3.55h0Z" style="fill:#263238"></path><path d="M298.05,270.33a.49.49,0,0,1-.21,0,8.25,8.25,0,0,1-3.68-4.07.5.5,0,0,1,.28-.65.51.51,0,0,1,.65.28,7.33,7.33,0,0,0,3.17,3.53.49.49,0,0,1,.24.66A.49.49,0,0,1,298.05,270.33Z" style="fill:#263238"></path><path d="M305,256.27a.5.5,0,0,1-.22-.95,6.09,6.09,0,0,1,3-.69.5.5,0,1,1-.08,1,5.31,5.31,0,0,0-2.49.6A.54.54,0,0,1,305,256.27Z" style="fill:#263238"></path><path d="M303.87,253.86a.51.51,0,0,1-.43-.77,3.87,3.87,0,0,1,2.55-1.92,3.59,3.59,0,0,1,2.55.65.52.52,0,0,1,.08.71.5.5,0,0,1-.7.08,2.52,2.52,0,0,0-1.77-.45,2.88,2.88,0,0,0-1.86,1.47A.51.51,0,0,1,303.87,253.86Z" style="fill:#263238"></path><path d="M307.94,265.27a3.4,3.4,0,0,1-2.56-1.19.51.51,0,0,1,0-.71.49.49,0,0,1,.7,0A2.32,2.32,0,0,0,309,264a.5.5,0,0,1,.49.88A3.16,3.16,0,0,1,307.94,265.27Z" style="fill:#263238"></path><path d="M340.89,472.61c-1.56-.45-9.62-5.37-9.62-5.37a12.49,12.49,0,0,0,0-2.91c-.23-.68-2.24-2.24-2.24-2.24s-1.8-16.35-1.8-24.19a137.51,137.51,0,0,0-1.79-19.48c-.22-.9-6.27-63.37-6.27-63.37l-2-15.9-19.94,1-19.94-1-2,15.9s-6,62.47-6.27,63.37a139.11,139.11,0,0,0-1.79,19.48c0,7.84-1.79,24.19-1.79,24.19s-2,1.56-2.24,2.24a12.49,12.49,0,0,0,0,2.91s-8.06,4.92-9.63,5.37-.89,1.79.9,2.69,5.82,1.34,7.61,1.34,4.48-3.13,5.15-3.58.45,2.24.45,2.24a6.83,6.83,0,0,0,2.46-.45c.9-.45,2.47.45,2.69-2.24s.23-5.37.23-5.37a9.86,9.86,0,0,0,2-2.91c.45-1.35,1.34-5.15,1.34-5.15l14.11-56.88,6.73-31.11L304,402.3l14.1,56.88s.9,3.8,1.35,5.15a9.67,9.67,0,0,0,2,2.91s0,2.68.23,5.37,1.79,1.79,2.68,2.24a6.91,6.91,0,0,0,2.47.45s-.23-2.69.44-2.24,3.36,3.58,5.16,3.58,5.82-.45,7.61-1.34S342.46,473.06,340.89,472.61Z" style="fill:#263238"></path><path d="M332.38,477.14c-1.54,0-3.41-1.78-4.65-3l-.45-.43a9.44,9.44,0,0,0,0,1.51.46.46,0,0,1-.13.38.48.48,0,0,1-.36.16,7.43,7.43,0,0,1-2.69-.5,2,2,0,0,0-.66-.12c-.84-.06-2.1-.15-2.3-2.53s-.22-4.53-.23-5.21a9.6,9.6,0,0,1-2-3c-.45-1.35-1.32-5-1.35-5.19l-14.11-56.87-6.24-28.87L291,402.4l-14.11,56.9c0,.15-.91,3.83-1.36,5.18a9.42,9.42,0,0,1-2,3c0,.68,0,3-.22,5.21s-1.46,2.47-2.3,2.53a1.9,1.9,0,0,0-.66.12,7.43,7.43,0,0,1-2.69.5.52.52,0,0,1-.37-.16.53.53,0,0,1-.13-.38,8.51,8.51,0,0,0,0-1.51c-.14.12-.29.27-.46.43-1.24,1.18-3.11,3-4.65,3-1.7,0-5.88-.42-7.84-1.39-1.35-.68-2.12-1.58-2-2.4,0-.33.23-.93,1.23-1.22,1.19-.34,6.84-3.69,9.25-5.16a9.67,9.67,0,0,1,.05-2.8,8.42,8.42,0,0,1,2.24-2.35c.2-1.93,1.76-16.67,1.76-23.92a137.44,137.44,0,0,1,1.81-19.6c.21-1.07,4.18-41.88,6.26-63.3l2-15.92a.49.49,0,0,1,.52-.43l19.94,1,19.89-1a.47.47,0,0,1,.52.43l2,15.9c2.07,21.45,6.05,62.25,6.26,63.33a137.41,137.41,0,0,1,1.8,19.59c0,7.25,1.56,22,1.77,23.92a8.42,8.42,0,0,1,2.24,2.35,10,10,0,0,1,.05,2.8c2.41,1.47,8.06,4.82,9.24,5.16h0c1,.29,1.21.89,1.24,1.22.07.82-.69,1.72-2,2.4C338.27,476.72,334.09,477.14,332.38,477.14Zm-5.29-4.63a.74.74,0,0,1,.42.13,8.87,8.87,0,0,1,.91.81c1,.94,2.82,2.69,4,2.69,1.73,0,5.68-.43,7.4-1.29,1.07-.53,1.52-1.15,1.49-1.41s-.2-.26-.51-.35c-1.59-.45-8.92-4.92-9.76-5.43a.49.49,0,0,1-.23-.47,11.15,11.15,0,0,0,0-2.71,9.59,9.59,0,0,0-2.07-2,.46.46,0,0,1-.19-.34c0-.16-1.8-16.46-1.8-24.24A139.51,139.51,0,0,0,325,418.54c-.23-.91-5.67-57.05-6.28-63.45l-2-15.42-19.48.95-19.52-.95-2,15.44c-.62,6.38-6.05,62.52-6.28,63.43a139.33,139.33,0,0,0-1.78,19.36c0,7.78-1.77,24.08-1.79,24.24a.53.53,0,0,1-.19.34,9.35,9.35,0,0,0-2.07,2,11.15,11.15,0,0,0,0,2.71.48.48,0,0,1-.24.47c-.83.51-8.16,5-9.75,5.43-.31.09-.5.22-.51.35s.42.88,1.49,1.41c1.72.86,5.67,1.29,7.39,1.29,1.14,0,3-1.75,4-2.69a8.7,8.7,0,0,1,.92-.81.68.68,0,0,1,.75,0c.15.09.58.34.5,2.17a5.07,5.07,0,0,0,1.71-.37,2.67,2.67,0,0,1,1-.21c.76-.06,1.26-.1,1.38-1.62.22-2.63.22-5.31.22-5.33a.53.53,0,0,1,.15-.36,9.22,9.22,0,0,0,1.9-2.71c.43-1.31,1.32-5.07,1.33-5.11L290,402.18l6.72-31.1a.49.49,0,0,1,.49-.39.5.5,0,0,1,.49.39l6.72,31.11,14.11,56.87s.9,3.8,1.33,5.11a9.22,9.22,0,0,0,1.9,2.71.52.52,0,0,1,.14.36s0,2.7.22,5.33c.13,1.52.63,1.56,1.38,1.62a2.72,2.72,0,0,1,1,.21,5,5,0,0,0,1.7.37c-.07-1.83.36-2.08.51-2.17A.68.68,0,0,1,327.09,472.51Z" style="fill:#263238"></path><path d="M273.3,316.21l-5.7-27.43s-12.29,42.75-12.83,43.82a.49.49,0,0,0-.05.19l-5.61,18.46,11.22-.31,6.48-12.17,3.16-9.64C271.3,325.41,273.3,316.21,273.3,316.21Z" style="fill:#BB0A08"></path><path d="M249.11,351.75a.51.51,0,0,1-.4-.19.49.49,0,0,1-.08-.45l5.6-18.42a.87.87,0,0,1,.1-.31c.48-1.07,9.4-31.93,12.79-43.74a.52.52,0,0,1,.5-.36.5.5,0,0,1,.47.4l5.7,27.43a.5.5,0,0,1,0,.21c-.08.38-2,9.27-3.35,13l-3.16,9.62-6.51,12.25a.51.51,0,0,1-.43.27l-11.22.31Zm18.41-60.89c-2.59,9-11.81,41-12.3,42a.52.52,0,0,1,0,.11l-5.41,17.79,10.23-.29,6.35-11.91,3.12-9.56c1.24-3.44,3.08-11.73,3.3-12.76Z" style="fill:#263238"></path><line x1="272.19" y1="312.39" x2="268.75" y2="304.06" style="fill:#fff"></line><path d="M272.19,312.89a.5.5,0,0,1-.46-.31l-3.44-8.32a.5.5,0,0,1,.27-.66.51.51,0,0,1,.65.27l3.44,8.33a.49.49,0,0,1-.27.65A.43.43,0,0,1,272.19,312.89Z" style="fill:#263238"></path><path d="M267.87,325.38l1,.7" style="fill:#fff"></path><path d="M268.85,326.58a.47.47,0,0,1-.3-.1l-1-.69a.51.51,0,0,1-.12-.7.5.5,0,0,1,.7-.12l1,.7a.51.51,0,0,1,.11.7A.49.49,0,0,1,268.85,326.58Z" style="fill:#263238"></path><path d="M266.74,325.08a.51.51,0,0,1-.29-.08c-2.95-2.05-3.54-2.24-3.63-2.26a28.88,28.88,0,0,0-3.87,1.17.5.5,0,1,1-.34-.94,26.67,26.67,0,0,1,4.25-1.23c.23,0,.65,0,4.16,2.43a.5.5,0,0,1,.13.7A.49.49,0,0,1,266.74,325.08Z" style="fill:#263238"></path><path d="M324.61,286.29s14.07,37.58,14.43,39a9.59,9.59,0,0,1,.53,3.92c-.18,1.6-2.67,2.67-3.21,2.67s-4.45-2.49-6.05-3.21-6.42-3-6.42-3l-2.49-8Z" style="fill:#BB0A08"></path><path d="M336.36,332.39c-.37,0-1-.34-3.25-1.61-1.13-.66-2.31-1.33-3-1.64-1.59-.71-6.38-3-6.42-3a.48.48,0,0,1-.26-.31l-2.5-8a.68.68,0,0,1,0-.2l3.21-31.35a.5.5,0,0,1,1-.13c.58,1.54,14.09,37.63,14.45,39.07l.17.65a8.28,8.28,0,0,1,.38,3.44C339.85,331.22,337.06,332.39,336.36,332.39Zm-12.05-7.09c.92.44,4.81,2.31,6.2,2.93.75.33,1.94,1,3.1,1.68a25.25,25.25,0,0,0,2.79,1.48c.37,0,2.53-1,2.67-2.23a7.35,7.35,0,0,0-.34-3.07c-.06-.21-.12-.43-.18-.67-.26-1.05-8.66-23.58-13.66-37l-3,29.13Z" style="fill:#263238"></path><line x1="325.39" y1="298.49" x2="325.63" y2="297.57" style="fill:#fff"></line><path d="M325.39,299l-.12,0a.5.5,0,0,1-.36-.61l.23-.92a.51.51,0,0,1,.61-.36.5.5,0,0,1,.36.61l-.23.92A.51.51,0,0,1,325.39,299Z" style="fill:#263238"></path><line x1="322.03" y1="311.7" x2="325.01" y2="299.98" style="fill:#fff"></line><path d="M322,312.2h-.12a.5.5,0,0,1-.36-.61l3-11.72a.5.5,0,0,1,1,.24l-3,11.73A.5.5,0,0,1,322,312.2Z" style="fill:#263238"></path><path d="M287.73,280.84l-20.13,7.94,8.73,46.32s-.71,4.27-.18,5.16a4.8,4.8,0,0,0,1.43,1.43H317s2.67-2.5,2.67-3v-2.32l5-50-19.94-5.2Z" style="fill:#fff"></path><path d="M317,342.19H277.58a.59.59,0,0,1-.26-.07,5.22,5.22,0,0,1-1.6-1.6c-.57-.95-.08-4.28.1-5.42l-8.71-46.23a.49.49,0,0,1,.31-.55l20.13-7.95a.4.4,0,0,1,.19,0l16.94.24.12,0,19.93,5.2a.5.5,0,0,1,.37.54l-5,50.05v2.27c0,.19,0,.75-2.83,3.39A.51.51,0,0,1,317,342.19Zm-39.22-1h39a16,16,0,0,0,2.38-2.6v-2.25l4.95-49.68-19.47-5.08-16.78-.24-19.65,7.75L276.82,335a.54.54,0,0,1,0,.18c-.32,2-.51,4.37-.24,4.83A4.13,4.13,0,0,0,277.73,341.19Z" style="fill:#263238"></path><polygon points="293.15 282.04 296.01 290.13 292.13 339.36 298.2 348.97 303.43 338.51 298.03 290.13 301.41 282.89 296.68 280.28 293.15 282.04" style="fill:#BB0A08"></polygon><path d="M298.2,349.47a.49.49,0,0,1-.42-.24l-6.07-9.61a.45.45,0,0,1-.07-.3l3.86-49.12-2.83-8a.5.5,0,0,1,.25-.61l3.54-1.77a.5.5,0,0,1,.46,0l4.73,2.61a.5.5,0,0,1,.21.65l-3.31,7.12,5.38,48.24a.56.56,0,0,1-.05.28l-5.23,10.45a.48.48,0,0,1-.42.27Zm-5.55-10.24,5.5,8.72,4.77-9.53-5.38-48.23a.51.51,0,0,1,0-.27l3.18-6.82-4.09-2.25-2.9,1.44,2.71,7.68a.34.34,0,0,1,0,.2Z" style="fill:#263238"></path><polygon points="287.76 274.66 285.72 278.94 291.97 288.28 295.34 280.19 287.76 274.66" style="fill:#fff"></polygon><path d="M292,288.78a.5.5,0,0,1-.42-.22l-6.25-9.34a.52.52,0,0,1,0-.5l2-4.28a.5.5,0,0,1,.75-.19l7.57,5.54a.49.49,0,0,1,.17.59l-3.37,8.09a.51.51,0,0,1-.42.31Zm-5.68-9.88,5.57,8.33,2.86-6.87L288,275.42Z" style="fill:#263238"></path><polygon points="298.37 280.36 301.07 288.95 306.63 280.02 304.1 274.8 298.37 280.36" style="fill:#fff"></polygon><path d="M301.07,289.46H301a.49.49,0,0,1-.42-.35l-2.7-8.59A.53.53,0,0,1,298,280l5.73-5.56a.52.52,0,0,1,.44-.14.49.49,0,0,1,.36.28l2.53,5.22a.5.5,0,0,1,0,.49l-5.57,8.93A.49.49,0,0,1,301.07,289.46Zm-2.13-9,2.28,7.27,4.84-7.78L304,275.64Z" style="fill:#263238"></path><polygon points="285.72 278.94 290.18 335.01 288.9 397.78 265.97 397.78 271.7 330.55 267.6 288.78 285.72 278.94" style="fill:#BB0A08"></polygon><path d="M288.91,398.28H266a.51.51,0,0,1-.37-.16.49.49,0,0,1-.13-.38l5.73-67.23-4.1-41.68a.52.52,0,0,1,.26-.49l18.12-9.84a.5.5,0,0,1,.74.4L290.68,335l-1.27,62.82A.51.51,0,0,1,288.91,398.28Zm-22.4-1h21.91L289.68,335l-4.4-55.26-17.15,9.32,4.07,41.44Z" style="fill:#263238"></path><polygon points="306.43 278.94 301.97 335.01 303.24 397.78 326.18 397.78 320.45 330.55 324.61 286.29 306.43 278.94" style="fill:#BB0A08"></polygon><path d="M326.18,398.28H303.24a.51.51,0,0,1-.5-.49L301.47,335l4.46-56.12a.5.5,0,0,1,.24-.39.51.51,0,0,1,.45,0l18.17,7.35a.5.5,0,0,1,.31.51L321,330.6l5.73,67.14a.49.49,0,0,1-.13.38A.51.51,0,0,1,326.18,398.28Zm-22.45-1h21.91L320,330.59l4.12-44-17.2-6.95-4.4,55.39Z" style="fill:#263238"></path><path d="M348.76,305.76s-22.06,15.78-22.54,16.1-2.29,2.69-2.33,3.8.6,5.68,2.81,7.26,9.32,1.42,10.27.48L357,313.48Z" style="fill:#BB0A08"></path><path d="M332.81,334.62c-2.44,0-5.17-.41-6.4-1.29-2.41-1.72-3.06-6.55-3-7.69.05-1.32,2-3.83,2.56-4.2.37-.24,14.89-10.63,22.52-16.08a.49.49,0,0,1,.63,0l8.28,7.72a.48.48,0,0,1,.16.36.51.51,0,0,1-.15.36l-20.07,19.91C336.75,334.32,334.88,334.62,332.81,334.62Zm15.91-28.21c-2.87,2-21.77,15.57-22.22,15.87s-2.07,2.47-2.11,3.39c0,1.18.66,5.46,2.6,6.84s8.88,1.28,9.63.53l19.7-19.54Z" style="fill:#263238"></path><path d="M347.87,308.9a4.72,4.72,0,0,0,1.9,3.32c1.9,1.58,7.27,1.26,7.27,1.26l-8.28-7.72S347.08,306.37,347.87,308.9Z" style="fill:#263238"></path><path d="M355.92,314c-1.74,0-5-.18-6.47-1.41a5.29,5.29,0,0,1-2.07-3.61c-.88-2.9,1.19-3.69,1.21-3.7a.51.51,0,0,1,.51.11l8.28,7.72a.48.48,0,0,1,.13.53.5.5,0,0,1-.44.33C357,314,356.57,314,355.92,314Zm-7.55-5.11a4.25,4.25,0,0,0,1.72,2.94c1.13.94,3.89,1.16,5.71,1.17l-7.11-6.63c-.33.26-.8.91-.34,2.37A.39.39,0,0,1,348.37,308.9Zm0,0h0Z" style="fill:#263238"></path><path d="M349.61,304.79l-1.74,4.11s1.11,3.16,3,3.48,2.21-.95,2.21-.95l.79-2.37,5.78-5.26Z" style="fill:#c9c9c9"></path><path d="M351.44,312.93a3.93,3.93,0,0,1-.65-.06c-2.16-.36-3.34-3.66-3.39-3.8a.5.5,0,0,1,0-.36l1.74-4.11a.51.51,0,0,1,.41-.31l10.05-1a.49.49,0,0,1,.38.86l-5.68,5.17-.75,2.25A2,2,0,0,1,351.44,312.93Zm-3-4c.35.9,1.32,2.77,2.55,3s1.62-.5,1.65-.58l.79-2.4a.6.6,0,0,1,.14-.21l4.66-4.24-8.24.81Z" style="fill:#263238"></path><path d="M359.66,303.8s2-1.14,2.43-2.18,2.59-2.59,3.62-3.75.39-2.46-1.42-1.81-5.82,4-5.82,4Z" style="fill:#c9c9c9"></path><path d="M359.66,304.3a.58.58,0,0,1-.19,0,.52.52,0,0,1-.29-.31L358,300.22a.49.49,0,0,1,.16-.53c.16-.14,4.1-3.44,6-4.11a1.93,1.93,0,0,1,2.36.42,1.81,1.81,0,0,1-.39,2.2,20.1,20.1,0,0,1-1.53,1.46,8.68,8.68,0,0,0-2,2.14c-.44,1.17-2.43,2.31-2.66,2.44A.53.53,0,0,1,359.66,304.3Zm-.61-4.06.89,2.8a4.71,4.71,0,0,0,1.68-1.59,8.44,8.44,0,0,1,2.28-2.54,19.83,19.83,0,0,0,1.44-1.37c.38-.43.43-.81.31-1s-.54-.27-1.19,0C363,297,360,299.5,359.05,300.24Z" style="fill:#263238"></path><path d="M252.8,357.77s-2.16.91-3.22.58-3.63.44-5.19.53-2.17-1.21-.55-2.23,6.75-2.12,6.75-2.12Z" style="fill:#c9c9c9"></path><path d="M244.23,359.39a1.74,1.74,0,0,1-1.78-1.05c-.24-.73.18-1.52,1.13-2.12,1.68-1.06,6.7-2.13,6.91-2.18a.51.51,0,0,1,.52.21l2.2,3.24a.5.5,0,0,1-.22.75c-.24.09-2.37,1-3.56.58a8.86,8.86,0,0,0-2.92.26,19.08,19.08,0,0,1-2.09.3Zm6.14-4.3c-1.14.26-5,1.16-6.26,2-.59.37-.78.75-.71,1s.39.39,1,.35a15.93,15.93,0,0,0,2-.29,8.5,8.5,0,0,1,3.4-.22,4.83,4.83,0,0,0,2.3-.34Z" style="fill:#263238"></path><path d="M214.45,371.72a11.5,11.5,0,0,1-5.15-21.79L375.08,267a11.5,11.5,0,0,1,10.29,20.57L219.58,370.5A11.4,11.4,0,0,1,214.45,371.72Z" style="fill:#263238"></path><path d="M452.64,143.8a89.47,89.47,0,1,0,89.46,89.47A89.47,89.47,0,0,0,452.64,143.8Zm0,158.79A69.33,69.33,0,1,1,522,233.27,69.33,69.33,0,0,1,452.64,302.59Z" style="fill:#263238"></path><path d="M452.64,323.23a90,90,0,1,1,90-90A90.07,90.07,0,0,1,452.64,323.23Zm0-178.93a89,89,0,1,0,89,89A89.07,89.07,0,0,0,452.64,144.3Zm0,158.79a69.83,69.83,0,1,1,69.82-69.82A69.91,69.91,0,0,1,452.64,303.09Zm0-138.65a68.83,68.83,0,1,0,68.82,68.83A68.91,68.91,0,0,0,452.64,164.44Z" style="fill:#263238"></path><path d="M449.48,143.8A89.47,89.47,0,1,0,539,233.27,89.47,89.47,0,0,0,449.48,143.8Zm0,158.79a69.33,69.33,0,1,1,69.32-69.32A69.33,69.33,0,0,1,449.48,302.59Z" style="fill:#fff"></path><path d="M449.48,323.23a90,90,0,1,1,90-90A90.07,90.07,0,0,1,449.48,323.23Zm0-178.93a89,89,0,1,0,89,89A89.07,89.07,0,0,0,449.48,144.3Zm0,158.79a69.83,69.83,0,1,1,69.82-69.82A69.91,69.91,0,0,1,449.48,303.09Zm0-138.65a68.83,68.83,0,1,0,68.82,68.83A68.91,68.91,0,0,0,449.48,164.44Z" style="fill:#263238"></path><path d="M359.18,297.39s1.66,5.7.48,6.41-9.5,3.33-9.5,3.33,1.66-6.89,2.13-7.6,1.39-1,1.39-.63l.52,1.43s.77-3,1.55-2.85,1,1,1,1S357.44,295.62,359.18,297.39Z" style="fill:#c9c9c9"></path><path d="M350.16,307.63a.51.51,0,0,1-.49-.62c.28-1.16,1.71-7,2.21-7.76a2,2,0,0,1,1.83-1,.62.62,0,0,1,.45.5c.41-1,1-1.9,1.67-1.78a1.6,1.6,0,0,1,.84.42,1.94,1.94,0,0,1,1.1-1,1.8,1.8,0,0,1,1.77.67.55.55,0,0,1,.12.21c.53,1.83,1.62,6.16.25,7-1.2.72-8.75,3.11-9.6,3.37Zm3.13-8.33a1.48,1.48,0,0,0-.58.51,58.5,58.5,0,0,0-1.86,6.57c2.7-.86,7.71-2.5,8.55-3,.39-.24.18-2.77-.66-5.72-.19-.18-.48-.39-.69-.33-.37.1-.69.9-.78,1.3a.5.5,0,0,1-.47.39.52.52,0,0,1-.5-.37s-.18-.6-.63-.68a8.43,8.43,0,0,0-1,2.48.5.5,0,0,1-.46.38.48.48,0,0,1-.49-.33Z" style="fill:#263238"></path><path d="M350.16,307.13s-1.66.19-1.4-1.37,2.59-6.08,3.11-4.79S350.91,305.77,350.16,307.13Z" style="fill:#c9c9c9"></path><path d="M350,307.64a1.92,1.92,0,0,1-1.37-.51,1.61,1.61,0,0,1-.35-1.45c.19-1.19,2-5.29,3.25-5.43a.76.76,0,0,1,.81.54c.67,1.67-1.2,5.61-1.74,6.58a.47.47,0,0,1-.38.25A.76.76,0,0,1,350,307.64Zm.17-.51h0Zm1.3-5.74a12.68,12.68,0,0,0-2.21,4.46.75.75,0,0,0,.09.59.85.85,0,0,0,.52.19C350.7,305,351.62,302.48,351.46,301.39Z" style="fill:#263238"></path><path d="M353.16,306a.5.5,0,0,1-.29-.09.49.49,0,0,1-.11-.7c.77-1.06.93-3.88.94-4.88a.5.5,0,0,1,.5-.5h0a.5.5,0,0,1,.5.5c0,.16,0,3.93-1.14,5.47A.49.49,0,0,1,353.16,306Z" style="fill:#263238"></path><path d="M356.65,304.84l-.15,0a.5.5,0,0,1-.32-.63,11.34,11.34,0,0,0,.12-5.55.5.5,0,0,1,1-.25,12.26,12.26,0,0,1-.14,6.1A.5.5,0,0,1,356.65,304.84Z" style="fill:#263238"></path><path d="M248.05,353.45s3.46,4.82,4.75,4.32,8.47-5.42,8.47-5.42-6.44-2.94-7.29-3-1.66.47-1.35.71l.8,1.28s-2.82-1.22-3.2-.53a1.48,1.48,0,0,0,.18,1.45S247.73,351,248.05,353.45Z" style="fill:#c9c9c9"></path><path d="M252.63,358.3c-1.54,0-4-3.13-5-4.56a.5.5,0,0,1-.09-.23,1.77,1.77,0,0,1,.56-1.8,1.93,1.93,0,0,1,1.5-.23,1.6,1.6,0,0,1,.18-.92c.34-.63,1.35-.54,2.43-.21a.65.65,0,0,1-.11-.67,1.94,1.94,0,0,1,1.9-.83c.9.06,6.38,2.55,7.47,3a.48.48,0,0,1,.29.41.49.49,0,0,1-.21.46c-.74.51-7.27,5-8.58,5.48A1,1,0,0,1,252.63,358.3Zm-4.1-5c1.8,2.48,3.67,4.21,4.09,4.05.91-.35,5.3-3.28,7.64-4.87a59.83,59.83,0,0,0-6.32-2.6,1.59,1.59,0,0,0-.76.14l.68,1.09a.51.51,0,0,1-.05.59.49.49,0,0,1-.58.13,6,6,0,0,0-2.62-.68c-.16.33.2.85.2.85a.48.48,0,0,1,0,.61.49.49,0,0,1-.6.13c-.43-.2-1.2-.4-1.49-.18S248.51,353,248.53,353.26Z" style="fill:#263238"></path><path d="M261.27,352.35s1.18-1.19-.21-1.94-6.38-1.72-5.68-.51S259.75,352.1,261.27,352.35Z" style="fill:#c9c9c9"></path><path d="M261.27,352.85h-.07c-1.1-.17-5.36-1.14-6.26-2.69a.78.78,0,0,1,.08-1c.88-.91,5.22.21,6.28.79a1.6,1.6,0,0,1,.92,1.17,2.06,2.06,0,0,1-.59,1.56A.51.51,0,0,1,261.27,352.85Zm-5.31-3c.78.81,3.33,1.65,5.11,2a.82.82,0,0,0,.16-.52c0-.15-.16-.3-.41-.44A12.91,12.91,0,0,0,256,349.83Z" style="fill:#263238"></path><path d="M258.15,354.21h0c-1.9-.07-4.88-2.39-5-2.48A.52.52,0,0,1,253,351a.5.5,0,0,1,.7-.08c.79.61,3.11,2.22,4.42,2.27a.5.5,0,0,1,0,1Z" style="fill:#263238"></path><path d="M255.07,356.24l-.17,0a12.18,12.18,0,0,1-4.89-3.66.51.51,0,0,1,.09-.7.52.52,0,0,1,.71.1,11.22,11.22,0,0,0,4.44,3.32.5.5,0,0,1,.29.65A.49.49,0,0,1,255.07,356.24Z" style="fill:#263238"></path></g></svg>
